<svg width="32" height="33" viewBox="0 0 32 33" fill="none" xmlns="http://www.w3.org/2000/svg">
<path d="M6.6665 9.83325H25.0532C25.4257 9.83327 25.7942 9.91135 26.1347 10.0625C26.4752 10.2136 26.7803 10.4344 27.0303 10.7106C27.2803 10.9868 27.4696 11.3124 27.5861 11.6663C27.7026 12.0202 27.7436 12.3945 27.7065 12.7653L26.9065 20.7653C26.8407 21.4233 26.5328 22.0333 26.0425 22.4771C25.5522 22.9208 24.9145 23.1666 24.2532 23.1666H11.5198C10.9031 23.1668 10.3054 22.9533 9.82843 22.5624C9.35145 22.1715 9.02471 21.6273 8.90384 21.0226L6.6665 9.83325Z" stroke="#FFF4E6" stroke-width="3" stroke-linejoin="round"/>
<path d="M6.6665 9.83333L5.5865 5.50933C5.51428 5.221 5.34777 4.96508 5.11345 4.78221C4.87912 4.59934 4.59041 4.50001 4.29317 4.5H2.6665M10.6665 28.5H13.3332M21.3332 28.5H23.9998" stroke="#FFF4E6" stroke-width="3" stroke-linecap="round" stroke-linejoin="round"/>
</svg>
