<svg width="19" height="15" viewBox="0 0 19 15" fill="none" xmlns="http://www.w3.org/2000/svg">
<path d="M17.9924 8.20441C18.1798 8.01688 18.2852 7.76258 18.2852 7.49741C18.2852 7.23225 18.1798 6.97794 17.9924 6.79041L12.3354 1.13341C12.2431 1.0379 12.1328 0.961721 12.0108 0.909312C11.8888 0.856903 11.7576 0.829317 11.6248 0.828163C11.492 0.827009 11.3603 0.852311 11.2374 0.902592C11.1145 0.952873 11.0029 1.02713 10.909 1.12102C10.8151 1.21491 10.7408 1.32656 10.6905 1.44946C10.6403 1.57236 10.615 1.70404 10.6161 1.83681C10.6173 1.96959 10.6449 2.10081 10.6973 2.22282C10.7497 2.34482 10.8259 2.45517 10.9214 2.54741L14.8714 6.49741H1.62837C1.36315 6.49741 1.1088 6.60277 0.921264 6.79031C0.733728 6.97784 0.628371 7.2322 0.628371 7.49741C0.628371 7.76263 0.733728 8.01698 0.921264 8.20452C1.1088 8.39206 1.36315 8.49741 1.62837 8.49741H14.8714L10.9214 12.4474C10.7392 12.636 10.6384 12.8886 10.6407 13.1508C10.643 13.413 10.7481 13.6638 10.9336 13.8492C11.119 14.0346 11.3698 14.1398 11.632 14.1421C11.8942 14.1444 12.1468 14.0436 12.3354 13.8614L17.9924 8.20441Z" fill="#FFF4E6"/>
</svg>
