<svg width="19" height="15" viewBox="0 0 19 15" fill="none" xmlns="http://www.w3.org/2000/svg">
<path d="M0.950989 8.20441C0.763518 8.01688 0.658203 7.76258 0.658203 7.49741C0.658203 7.23225 0.763518 6.97794 0.950989 6.79041L6.60799 1.13341C6.70024 1.0379 6.81058 0.961721 6.93258 0.909312C7.05459 0.856903 7.18581 0.829317 7.31859 0.828163C7.45137 0.827009 7.58305 0.852311 7.70594 0.902592C7.82884 0.952873 7.94049 1.02713 8.03438 1.12102C8.12828 1.21491 8.20253 1.32656 8.25281 1.44946C8.30309 1.57236 8.32839 1.70404 8.32724 1.83681C8.32609 1.96959 8.2985 2.10081 8.24609 2.22282C8.19368 2.34482 8.1175 2.45517 8.02199 2.54741L4.07199 6.49741H17.315C17.5802 6.49741 17.8346 6.60277 18.0221 6.79031C18.2096 6.97784 18.315 7.2322 18.315 7.49741C18.315 7.76263 18.2096 8.01698 18.0221 8.20452C17.8346 8.39206 17.5802 8.49741 17.315 8.49741H4.07199L8.02199 12.4474C8.20415 12.636 8.30494 12.8886 8.30266 13.1508C8.30038 13.413 8.19522 13.6638 8.00981 13.8492C7.8244 14.0346 7.57359 14.1398 7.31139 14.1421C7.04919 14.1444 6.79659 14.0436 6.60799 13.8614L0.950989 8.20441Z" fill="#FFF4E6"/>
</svg>
