<svg width="32" height="32" viewBox="0 0 32 32" fill="none" xmlns="http://www.w3.org/2000/svg">
<path d="M6.66602 9.33398H25.0527C25.4252 9.334 25.7937 9.41208 26.1342 9.56319C26.4747 9.7143 26.7798 9.9351 27.0298 10.2113C27.2798 10.4876 27.4691 10.8131 27.5856 11.167C27.7021 11.5209 27.7431 11.8953 27.706 12.266L26.906 20.266C26.8402 20.924 26.5323 21.5341 26.042 21.9778C25.5517 22.4216 24.914 22.6673 24.2527 22.6673H11.5193C10.9026 22.6676 10.3049 22.454 9.82794 22.0631C9.35096 21.6722 9.02422 21.1281 8.90335 20.5233L6.66602 9.33398Z" stroke="#FF9500" stroke-width="3" stroke-linejoin="round"/>
<path d="M6.66602 9.33333L5.58602 5.00933C5.51379 4.721 5.34729 4.46508 5.11296 4.28221C4.87863 4.09934 4.58992 4.00001 4.29268 4H2.66602M10.666 28H13.3327M21.3327 28H23.9993" stroke="#FF9500" stroke-width="3" stroke-linecap="round" stroke-linejoin="round"/>
</svg>
