<svg width="96" height="96" viewBox="0 0 96 96" fill="none" xmlns="http://www.w3.org/2000/svg">
<g filter="url(#filter0_d_2603_8341)">
<rect x="16" y="8" width="64" height="64" rx="32" fill="#FF9500" shape-rendering="crispEdges"/>
<path d="M39 33.334H57.3867C57.7592 33.334 58.1277 33.4121 58.4682 33.5632C58.8087 33.7143 59.1138 33.9351 59.3638 34.2113C59.6138 34.4876 59.8031 34.8131 59.9196 35.167C60.0361 35.5209 60.0771 35.8953 60.04 36.266L59.24 44.266C59.1742 44.924 58.8663 45.5341 58.376 45.9778C57.8856 46.4216 57.248 46.6673 56.5867 46.6673H43.8533C43.2366 46.6676 42.6389 46.454 42.1619 46.0631C41.6849 45.6722 41.3582 45.1281 41.2373 44.5233L39 33.334Z" stroke="#FFF4E6" stroke-width="3" stroke-linejoin="round"/>
<path d="M39 33.3333L37.92 29.0093C37.8478 28.721 37.6813 28.4651 37.4469 28.2822C37.2126 28.0993 36.9239 28 36.6267 28H35M43 52H45.6667M53.6667 52H56.3333" stroke="#FFF4E6" stroke-width="3" stroke-linecap="round" stroke-linejoin="round"/>
</g>
<defs>
<filter id="filter0_d_2603_8341" x="0" y="0" width="96" height="96" filterUnits="userSpaceOnUse" color-interpolation-filters="sRGB">
<feFlood flood-opacity="0" result="BackgroundImageFix"/>
<feColorMatrix in="SourceAlpha" type="matrix" values="0 0 0 0 0 0 0 0 0 0 0 0 0 0 0 0 0 0 127 0" result="hardAlpha"/>
<feOffset dy="8"/>
<feGaussianBlur stdDeviation="8"/>
<feComposite in2="hardAlpha" operator="out"/>
<feColorMatrix type="matrix" values="0 0 0 0 1 0 0 0 0 0.584314 0 0 0 0 0 0 0 0 1 0"/>
<feBlend mode="normal" in2="BackgroundImageFix" result="effect1_dropShadow_2603_8341"/>
<feBlend mode="normal" in="SourceGraphic" in2="effect1_dropShadow_2603_8341" result="shape"/>
</filter>
</defs>
</svg>
