<svg width="417" height="390" viewBox="0 0 417 390" fill="none" xmlns="http://www.w3.org/2000/svg">
<g clip-path="url(#clip0_2615_7854)">
<path d="M318.82 70.099C317.38 69.719 315.94 69.349 314.5 69.019C295.2 64.499 275.3 63.909 255.57 64.279C237.51 64.609 218.34 68.589 200.56 64.129C188.37 61.079 177.57 53.929 168.03 45.739C156.84 36.129 146.87 24.809 133.98 17.639C101.81 -0.260953 69.5703 10.859 45.5803 33.109C45.5403 33.139 45.5003 33.179 45.4703 33.209C43.9403 34.619 42.4603 36.079 41.0003 37.579C40.9603 37.609 40.9203 37.649 40.8903 37.679C26.9503 52.079 16.2803 70.169 10.7203 87.929C7.98027 96.679 5.77027 105.549 4.10027 114.469C4.08027 114.509 4.08027 114.549 4.07027 114.589C3.72027 116.409 3.40027 118.239 3.10027 120.059C3.10027 120.099 3.09027 120.139 3.08027 120.179C-10.1497 201.769 21.1703 286.119 98.0003 326.079C134.81 345.229 178.29 361.759 220.73 358.639C247.85 356.659 272.79 343.939 294.2 327.789C340.43 292.909 376.58 240.719 387.17 183.249C396.91 130.379 371.63 84.349 318.82 70.099Z" fill="#FFAA33"/>
<path opacity="0.5" d="M318.82 70.099C317.38 69.719 315.94 69.349 314.5 69.019C295.2 64.499 275.3 63.909 255.57 64.279C237.51 64.609 218.34 68.589 200.56 64.129C188.37 61.079 177.57 53.929 168.03 45.739C156.84 36.129 146.87 24.809 133.98 17.639C101.81 -0.260953 69.5703 10.859 45.5803 33.109C45.5403 33.139 45.5003 33.179 45.4703 33.209C43.9403 34.619 42.4603 36.079 41.0003 37.579C40.9603 37.609 40.9203 37.649 40.8903 37.679C26.9503 52.079 16.2803 70.169 10.7203 87.929C7.98027 96.679 5.77027 105.549 4.10027 114.469C4.08027 114.509 4.08027 114.549 4.07027 114.589C3.72027 116.409 3.40027 118.239 3.10027 120.059C3.10027 120.099 3.09027 120.139 3.08027 120.179C-10.1497 201.769 21.1703 286.119 98.0003 326.079C134.81 345.229 178.29 361.759 220.73 358.639C247.85 356.659 272.79 343.939 294.2 327.789C340.43 292.909 376.58 240.719 387.17 183.249C396.91 130.379 371.63 84.349 318.82 70.099Z" fill="#FFF4E6"/>
<path d="M396.148 358.449H416.378" stroke="#151716" stroke-width="0.9535" stroke-miterlimit="10" stroke-linecap="round" stroke-linejoin="round"/>
<path d="M236.59 358.449H259.04" stroke="#151716" stroke-width="0.9535" stroke-miterlimit="10" stroke-linecap="round" stroke-linejoin="round"/>
<path d="M60.2617 358.449H135.632" stroke="#151716" stroke-width="0.9535" stroke-miterlimit="10" stroke-linecap="round" stroke-linejoin="round"/>
<path d="M31 358.449H48.06" stroke="#151716" stroke-width="0.9535" stroke-miterlimit="10" stroke-linecap="round" stroke-linejoin="round"/>
<path d="M108.24 127.92C108.24 127.92 109.49 136.06 102.59 139.51C102.59 139.51 110.92 141.29 111.68 149.34C111.68 149.34 111.84 138.35 116.62 137.01C116.63 137.02 110.16 136.91 108.24 127.92Z" fill="#FFF4E6"/>
<path d="M207.351 128.949C207.351 128.949 206.951 133.939 202.391 135.019C202.391 135.019 207.071 137.239 206.401 142.109C206.401 142.109 208.031 135.629 211.051 135.499C211.051 135.499 207.231 134.529 207.351 128.949Z" fill="#FFF4E6"/>
<path d="M212.851 111.939C212.851 111.939 212.451 116.929 207.891 118.009C207.891 118.009 212.571 120.229 211.901 125.099C211.901 125.099 213.531 118.619 216.551 118.489C216.541 118.499 212.721 117.529 212.851 111.939Z" fill="#FFF4E6"/>
<path d="M96.0589 112.309C96.0589 112.309 95.7089 119.739 91.1289 122.029C91.1289 122.029 97.4489 123.509 98.5889 130.979C98.5889 130.979 97.6389 122.649 102.749 120.889C102.749 120.889 97.3289 118.279 96.0589 112.309Z" fill="#FFF4E6"/>
<path d="M325.758 380.851C362.082 380.851 391.528 374.256 391.528 366.121C391.528 357.985 362.082 351.391 325.758 351.391C289.435 351.391 259.988 357.985 259.988 366.121C259.988 374.256 289.435 380.851 325.758 380.851Z" fill="#FFF4E6" stroke="#6B3F00" stroke-width="0.9535" stroke-miterlimit="10" stroke-linecap="round" stroke-linejoin="round"/>
<path d="M326.128 375.22C357.962 375.22 383.768 369.928 383.768 363.4C383.768 356.872 357.962 351.58 326.128 351.58C294.295 351.58 268.488 356.872 268.488 363.4C268.488 369.928 294.295 375.22 326.128 375.22Z" stroke="#6B3F00" stroke-width="0.9535" stroke-miterlimit="10" stroke-linecap="round" stroke-linejoin="round"/>
<path d="M354.696 346.831C354.704 346.821 354.739 346.777 354.818 346.753L355.115 347.708C359.127 346.464 363.688 346.823 367.162 349.098C370.63 351.374 372.796 355.678 372.104 359.715L372.104 359.716C371.601 362.669 369.797 365.054 367.332 366.9C364.864 368.747 361.761 370.031 358.737 370.774L358.737 370.774C352.873 372.218 346.711 372.466 340.747 371.496C338.222 371.083 335.736 370.456 333.228 369.824C332.821 369.722 332.414 369.619 332.007 369.517C329.091 368.789 326.14 368.101 323.116 367.802C319.954 367.488 316.79 367.611 313.651 367.812C312.915 367.859 312.182 367.911 311.451 367.962C309.048 368.131 306.662 368.298 304.274 368.31L304.274 368.31C296.891 368.35 289.498 366.883 282.691 364.019L282.69 364.019C280.226 362.985 277.835 361.748 276.049 359.875C274.264 358.004 273.165 355.407 273.599 352.947C274.061 350.353 276.24 348.202 278.816 347.397C281.39 346.593 284.272 347.002 286.792 348.136L287.342 348.384L287.483 347.796C287.692 346.923 287.675 346.022 287.659 345.193L287.658 345.15C287.641 344.286 287.63 343.5 287.812 342.759L287.812 342.759L287.813 342.754C288.176 341.213 288.541 339.746 289.328 338.509C290.434 336.781 292.325 335.635 294.349 334.986L294.35 334.986C299.243 333.41 305.087 334.232 308.84 337.65L309.621 338.361L309.676 337.306C309.787 335.157 311.061 333.103 312.939 332.057C314.872 330.986 317.518 330.621 319.344 331.637L319.934 331.965L320.076 331.305C321.267 325.768 326.961 321.85 332.733 321.539C337.031 321.311 341.797 322.755 345.734 325.365C349.672 327.976 352.728 331.717 353.688 336.036C353.824 336.669 354.291 339.39 354.589 341.997C354.737 343.301 354.841 344.559 354.843 345.504C354.843 345.98 354.817 346.352 354.767 346.602C354.742 346.728 354.715 346.797 354.7 346.825C354.698 346.828 354.697 346.83 354.696 346.831ZM354.696 346.831C354.695 346.833 354.695 346.833 354.695 346.833C354.695 346.834 354.695 346.833 354.696 346.831Z" fill="#FF9500" stroke="#6B3F00"/>
<path d="M286.598 347.85C283.998 346.68 280.988 346.24 278.268 347.09C275.548 347.94 273.208 350.22 272.708 353.03C272.238 355.69 273.428 358.44 275.288 360.39C277.148 362.34 279.618 363.61 282.098 364.65C288.968 367.54 296.428 369.02 303.878 368.98C310.148 368.95 316.428 367.85 322.668 368.47C328.638 369.06 334.348 371.19 340.268 372.16C346.298 373.14 352.528 372.89 358.458 371.43C364.598 369.92 371.138 366.2 372.198 359.97C372.928 355.71 370.648 351.22 367.038 348.85C363.418 346.48 358.698 346.12 354.568 347.4C355.658 347.06 354.058 337.4 353.778 336.1C351.788 327.14 341.148 320.74 332.308 321.21C326.368 321.53 320.438 325.56 319.188 331.37C317.158 330.24 314.318 330.67 312.298 331.79C310.268 332.92 308.898 335.13 308.778 337.45C304.868 333.89 298.828 333.06 293.798 334.68C291.708 335.35 289.698 336.55 288.508 338.41C287.668 339.73 287.288 341.28 286.928 342.81C286.518 344.45 286.978 346.22 286.598 347.85Z" stroke="#6B3F00" stroke-width="0.9535" stroke-miterlimit="10" stroke-linecap="round" stroke-linejoin="round"/>
<path opacity="0.19" d="M286.823 348.366L287.374 348.614L287.514 348.027C287.723 347.154 287.706 346.252 287.69 345.424L287.689 345.381C287.673 344.517 287.662 343.731 287.844 342.99L287.844 342.99L287.845 342.985C288.207 341.444 288.572 339.977 289.36 338.739C290.465 337.011 292.356 335.865 294.381 335.217L294.381 335.216C299.274 333.64 305.118 334.463 308.871 337.88L309.653 338.592L309.707 337.536C309.818 335.387 311.092 333.333 312.971 332.288C314.903 331.216 317.55 330.851 319.375 331.867L319.965 332.196L320.107 331.536C321.298 325.998 326.992 322.081 332.765 321.77C337.062 321.541 341.828 322.985 345.765 325.596C349.703 328.207 352.759 331.947 353.719 336.267C353.855 336.899 354.323 339.62 354.62 342.227C354.769 343.532 354.873 344.79 354.874 345.735C354.874 346.211 354.848 346.582 354.798 346.832C354.773 346.959 354.746 347.027 354.731 347.056C354.714 347.088 354.741 347.017 354.849 346.983L355.146 347.938C359.159 346.694 363.719 347.054 367.194 349.328C370.661 351.605 372.827 355.908 372.135 359.946L372.135 359.947C371.633 362.9 369.829 365.285 367.363 367.13C364.896 368.977 361.792 370.261 358.769 371.005L358.768 371.005C352.904 372.449 346.742 372.696 340.778 371.727C338.253 371.313 335.767 370.687 333.259 370.055C332.853 369.952 332.446 369.85 332.038 369.748C329.123 369.02 326.172 368.332 323.147 368.033C319.985 367.719 316.821 367.841 313.682 368.043C312.947 368.09 312.213 368.141 311.482 368.193C309.079 368.361 306.694 368.529 304.306 368.54L304.305 368.54C296.923 368.58 289.529 367.113 282.722 364.25L282.721 364.249C280.257 363.216 277.866 361.978 276.08 360.105C274.295 358.234 273.196 355.637 273.63 353.178C274.092 350.584 276.272 348.432 278.847 347.628C281.421 346.823 284.303 347.232 286.823 348.366Z" fill="#FFF4E6" stroke="#6B3F00"/>
<path opacity="0.2" d="M350.413 330.201L350.413 330.201C351.439 331.129 352.229 332.598 352.825 334.339C353.418 336.072 353.804 338.024 354.053 339.867C354.301 341.708 354.412 343.427 354.459 344.685C354.483 345.314 354.491 345.827 354.492 346.182C354.493 346.36 354.492 346.497 354.491 346.589C354.491 346.636 354.49 346.67 354.49 346.692L354.489 346.712C354.489 346.714 354.489 346.711 354.49 346.706C354.49 346.705 354.49 346.695 354.492 346.683C354.492 346.679 354.493 346.672 354.494 346.664C354.496 346.655 354.498 346.644 354.5 346.635C354.511 346.593 354.695 346.346 354.955 346.252L354.988 347.241C354.999 347.237 355.01 347.233 355.021 347.23L355.022 347.239C364.553 346.597 369.287 349.76 370.932 353.743C372.601 357.782 371.209 362.911 367.971 366.422C366.38 368.146 364.033 369.454 361.264 370.403C358.5 371.351 355.349 371.929 352.191 372.216C345.857 372.792 339.585 372.186 336.431 371.108C329.896 368.862 320.556 367.172 313.036 368.114L313.036 368.114C305.675 369.038 296.872 369.773 283.262 364.069L283.261 364.069C276.44 361.216 274.056 358.581 273.31 356.782C272.941 355.89 272.963 355.18 273.064 354.707C273.072 354.669 273.08 354.632 273.089 354.597C276.207 357.575 280.429 359.385 284.738 359.56C289.297 359.745 293.902 358.111 297.329 355.086C297.802 354.671 298.255 354.226 298.695 353.794C298.829 353.662 298.961 353.532 299.093 353.404C299.666 352.847 300.232 352.324 300.851 351.876L300.852 351.875C304.225 349.424 309.224 349.453 312.568 351.961L313.07 352.337L313.325 351.764C314.291 349.598 315.712 347.623 317.695 346.495C319.68 345.366 322.272 345.258 324.046 346.536L324.685 346.997L324.83 346.223C325.978 340.097 328.667 334.037 333.586 330.382C338.512 326.722 345.968 326.175 350.413 330.201Z" fill="#151716" stroke="#6B3F00"/>
<path d="M312.319 317.94C309.609 316.7 308.359 313.35 308.739 310.39C309.119 307.43 310.769 304.8 312.549 302.41C314.319 300.01 316.279 297.69 317.409 294.93C321.849 284.13 312.299 271.36 316.549 260.49" stroke="#6B3F00" stroke-width="0.9535" stroke-miterlimit="10" stroke-linecap="round" stroke-linejoin="round"/>
<path d="M351.108 317.11C348.568 316.33 347.078 313.62 346.598 311.01C345.088 302.79 350.748 295.05 351.978 286.79C352.988 279.93 350.908 273.04 348.838 266.42" stroke="#6B3F00" stroke-width="0.9535" stroke-miterlimit="10" stroke-linecap="round" stroke-linejoin="round"/>
<path d="M332.289 314.701C329.579 312.151 329.889 307.701 331.349 304.281C332.809 300.861 335.199 297.841 336.189 294.261C337.359 290.041 336.379 285.281 333.619 281.881" stroke="#6B3F00" stroke-width="0.9535" stroke-miterlimit="10" stroke-linecap="round" stroke-linejoin="round"/>
<path d="M308.36 268.5C308.13 272.26 308.36 276.05 309.06 279.76" stroke="#6B3F00" stroke-width="0.9535" stroke-miterlimit="10" stroke-linecap="round" stroke-linejoin="round"/>
<path d="M308.559 291.5C308.899 295.23 306.439 298.55 304.469 301.74C302.229 305.37 300.479 309.35 299.839 313.56C299.199 317.77 299.719 322.23 301.779 325.97" stroke="#6B3F00" stroke-width="0.9535" stroke-miterlimit="10" stroke-linecap="round" stroke-linejoin="round"/>
<path d="M174.22 140.811L175.18 153.041L175.2 153.331C174.44 153.231 173.59 153.191 172.66 153.181C166.03 153.151 155.69 155.371 148.31 157.191C143.16 158.471 139.44 159.561 139.44 159.561L138.33 155.161L134.15 138.641C130.74 135.711 125.54 124.201 125.54 124.201C121.31 123.551 116.05 119.711 114.91 114.341C113.77 108.981 120.37 109.491 120.37 109.491L124.65 106.861L130.01 92.2311C130.01 92.2311 125.3 81.3411 134.57 76.9511C143.83 72.5611 175.36 87.8311 175.36 87.8311L178.77 102.141C183.15 103.931 178.52 114.651 178.52 114.651C178.52 114.651 178.94 114.821 179.43 121.151C179.91 127.491 174.22 140.811 174.22 140.811Z" fill="#FFF4E6"/>
<path d="M163.691 106.811C165.091 112.131 170.021 115.921 169.841 117.301C169.611 119.061 167.431 121.441 165.471 121.471" stroke="#151716" stroke-width="0.9535" stroke-miterlimit="10" stroke-linecap="round" stroke-linejoin="round"/>
<path d="M173.399 98.261C173.399 98.261 169.079 94.731 165.719 99.261" stroke="#151716" stroke-width="1.907" stroke-miterlimit="10" stroke-linecap="round" stroke-linejoin="round"/>
<path d="M148.559 125.131C148.559 125.131 150.769 130.881 159.539 130.681" stroke="#151716" stroke-width="0.9535" stroke-miterlimit="10" stroke-linecap="round" stroke-linejoin="round"/>
<path d="M154.2 102.76C151.04 100.81 146.66 100.98 144.34 105.3" stroke="#151716" stroke-width="1.907" stroke-miterlimit="10" stroke-linecap="round" stroke-linejoin="round"/>
<path d="M153.73 111.151C154.03 112.711 153.59 114.101 152.75 114.261C151.91 114.421 150.99 113.291 150.7 111.731C150.4 110.171 150.84 108.781 151.68 108.621C152.51 108.461 153.43 109.591 153.73 111.151Z" fill="#151716"/>
<path d="M171.761 107.651C172.061 109.211 171.621 110.601 170.781 110.761C169.941 110.921 169.021 109.791 168.731 108.231C168.431 106.671 168.871 105.281 169.711 105.121C170.541 104.961 171.461 106.091 171.761 107.651Z" fill="#151716"/>
<path d="M125.119 113.37C125.119 113.37 117.789 107.01 115.479 111.41C113.159 115.8 120.689 125.88 127.759 122.79" stroke="#151716" stroke-width="0.9535" stroke-miterlimit="10" stroke-linecap="round" stroke-linejoin="round"/>
<path d="M174.349 89.5703C174.349 89.5703 174.909 107.9 176.929 111.98C178.949 116.06 180.699 118.08 178.559 128.73C176.419 139.37 168.259 151.8 159.519 152.63C150.779 153.46 130.899 140.21 125.219 123.67" stroke="#151716" stroke-width="0.9535" stroke-miterlimit="10" stroke-linecap="round" stroke-linejoin="round"/>
<path d="M125.32 114.121C125.32 114.121 130.64 111.371 129.67 106.601C128.7 101.841 129.38 101.261 133.19 98.811C137 96.361 134.64 91.301 130.99 86.311C127.34 81.331 134.28 75.371 139.93 77.881C145.58 80.381 177.78 93.041 186.43 89.281C195.08 85.521 192.6 73.511 180.95 66.781C180.95 66.781 174.66 59.281 176.35 52.361C178.04 45.441 137.69 24.581 118.79 67.081C118.79 67.081 109.82 70.591 107.94 82.671C106.1 94.561 119.1 109.941 119.1 109.941C119.1 109.941 123.71 112.311 125.32 114.121Z" fill="#151716"/>
<path d="M130.762 75.7103C133.722 71.7303 139.222 70.2903 144.132 70.9903C149.042 71.6903 153.502 74.1903 157.692 76.8503C161.882 79.5103 166.002 82.4003 170.682 84.0403C173.342 84.9703 176.262 85.4803 178.972 84.7103C181.122 84.1003 183.062 82.6503 184.032 80.6403" stroke="#FFF4E6" stroke-width="0.9535" stroke-miterlimit="10" stroke-linecap="round" stroke-linejoin="round"/>
<path d="M122.369 72.4902C118.769 72.7302 115.629 75.4302 114.229 78.7602C112.829 82.0802 112.989 85.9002 113.979 89.3702C114.679 91.8102 115.759 94.1002 116.969 96.3302" stroke="#FFF4E6" stroke-width="0.9535" stroke-miterlimit="10" stroke-linecap="round" stroke-linejoin="round"/>
<path d="M174.931 139.172C174.321 141.192 174.321 143.352 174.441 145.462C174.581 148.082 174.781 150.272 175.271 152.852" stroke="#151716" stroke-width="0.9535" stroke-miterlimit="10" stroke-linecap="round" stroke-linejoin="round"/>
<path d="M134.102 137.941C135.832 144.061 137.752 151.441 139.512 159.631" stroke="#151716" stroke-width="0.9535" stroke-miterlimit="10" stroke-linecap="round" stroke-linejoin="round"/>
<path d="M175.469 105.421C175.469 105.421 177.099 100.971 180.199 102.941C183.299 104.911 178.369 114.921 178.369 114.921" stroke="#151716" stroke-width="0.9535" stroke-miterlimit="10" stroke-linecap="round" stroke-linejoin="round"/>
<path d="M180.001 86.4902C180.001 86.4902 181.551 99.1002 177.791 103.08L174.911 103.96L173.391 87.2202L180.001 86.4902Z" fill="#151716"/>
<path d="M106.06 70.6911C106.06 70.6911 95.9201 69.9811 86.1201 58.3211C76.3201 46.6611 84.2401 38.4811 89.1501 34.1011C94.0601 29.7311 106.07 17.7111 111.11 12.1411C116.14 6.58108 126.22 -0.568917 137.61 1.29108C149 3.14108 160.06 9.97108 170.92 13.1511C181.78 16.3311 192.55 28.1811 194.14 35.8611C195.73 43.5411 192.31 55.6611 188.34 58.5711L181.51 58.3611L184.53 68.7111C184.53 68.7111 143.92 52.6511 107.64 82.7911L110.7 72.0111L106.06 70.6911Z" fill="#FFF4E6"/>
<path d="M124.709 56.9004C124.659 61.5104 124.779 66.1104 125.059 70.7104L108.219 83.2304L112.339 62.9304L124.709 56.9004Z" fill="#FF9500"/>
<path opacity="0.6" d="M124.709 56.9004C124.659 61.5104 124.909 66.6304 125.199 71.2204L108.219 83.2204L112.339 62.9204L124.709 56.9004Z" fill="#FFF4E6"/>
<path d="M126.709 1.54158C128.299 0.941584 130.179 1.64158 131.279 2.93158C132.379 4.22158 132.789 5.99158 132.769 7.69158C132.719 13.2416 128.589 17.9416 124.059 21.1616C119.529 24.3816 114.349 26.7316 110.359 30.6016C105.829 35.0016 103.179 41.2816 103.169 47.5916C103.159 53.9116 105.799 60.1816 110.319 64.6016C110.769 65.0316 111.229 65.4516 111.669 65.8916L110.269 71.5816C110.269 71.5816 92.2191 69.2216 86.0891 58.3316C79.9591 47.4416 81.8691 42.3716 87.2491 35.9216C92.6291 29.4816 99.6391 26.0416 106.499 16.2816C113.359 6.52158 126.709 1.54158 126.709 1.54158Z" fill="#FF9500"/>
<path opacity="0.6" d="M126.709 1.54158C128.299 0.941584 130.179 1.64158 131.279 2.93158C132.379 4.22158 132.789 5.99158 132.769 7.69158C132.719 13.2416 128.589 17.9416 124.059 21.1616C119.529 24.3816 114.349 26.7316 110.359 30.6016C105.829 35.0016 103.179 41.2816 103.169 47.5916C103.159 53.9116 105.799 60.1816 110.319 64.6016C110.769 65.0316 111.229 65.4516 111.669 65.8916L110.269 71.5816C110.269 71.5816 92.2191 69.2216 86.0891 58.3316C79.9591 47.4416 81.8691 42.3716 87.2491 35.9216C92.6291 29.4816 99.6391 26.0416 106.499 16.2816C113.359 6.52158 126.709 1.54158 126.709 1.54158Z" fill="#FFF4E6"/>
<path d="M108.219 83.2204C108.219 83.2204 136.119 54.3004 184.409 69.2704L178.469 52.8804C178.469 52.8804 144.919 43.6604 112.339 62.9304L108.219 83.2204Z" stroke="#151716" stroke-width="0.9535" stroke-miterlimit="10" stroke-linecap="round" stroke-linejoin="round"/>
<path d="M181.69 61.6606C185.13 61.1106 191.81 57.3006 193.33 54.1606C194.85 51.0306 195.2 47.4506 195.14 43.9706C195.05 39.0106 194.13 33.9806 191.77 29.6206C186.59 20.0506 175.69 15.3606 165.58 11.3406C159.27 8.84062 152.97 6.34062 146.66 3.83062C142.83 2.31062 138.92 0.770622 134.81 0.500622C126.65 -0.0393777 118.96 4.51062 113 10.1006C107.04 15.7006 102.25 22.4506 96.1996 27.9506C93.2496 30.6306 90.0096 33.0006 87.2796 35.9006C84.5396 38.8006 82.2896 42.3706 81.8896 46.3306C81.3096 52.0406 84.6696 57.4706 88.7996 61.4706C92.8696 65.4206 96.9696 70.0606 110.22 71.6406" stroke="#151716" stroke-width="0.9535" stroke-miterlimit="10" stroke-linecap="round" stroke-linejoin="round"/>
<path d="M161.781 50.6698C164.521 49.0398 166.941 46.8798 168.861 44.3398" stroke="#151716" stroke-width="0.9535" stroke-miterlimit="10" stroke-linecap="round" stroke-linejoin="round"/>
<path d="M121.622 57.9708C116.832 56.3408 112.842 52.5208 111.012 47.8008" stroke="#151716" stroke-width="0.9535" stroke-miterlimit="10" stroke-linecap="round" stroke-linejoin="round"/>
<path d="M125.132 9.40055C120.652 9.08055 116.742 12.3605 113.862 15.8205C110.992 19.2806 108.432 23.2606 104.422 25.2906" stroke="#151716" stroke-width="0.9535" stroke-miterlimit="10" stroke-linecap="round" stroke-linejoin="round"/>
<path d="M286.719 206.271L245.439 238.491C245.439 238.491 229.589 186.851 228.659 180.421C226.119 174.231 216.909 165.591 216.909 165.591C216.909 165.591 183.069 163.911 180.629 162.521C178.189 161.131 177.909 153.031 177.909 153.031C177.029 153.021 176.109 153.031 175.179 153.051C174.349 153.081 173.509 153.131 172.659 153.181C164.589 153.781 155.529 155.771 148.659 157.571C142.239 159.251 137.729 160.751 137.729 160.751L140.219 171.611L138.409 174.331C132.479 178.771 99.9991 189.531 91.5891 193.331C87.0091 196.771 81.0091 202.611 81.0091 202.611C81.0091 202.611 51.8691 259.781 47.3391 266.761C42.8091 273.731 43.0291 281.351 43.0291 281.351C46.3691 288.501 51.2991 288.971 56.3591 290.721C57.1891 291.011 58.0291 291.331 58.8691 291.721C64.7991 294.501 117.089 290.361 117.089 290.361C117.089 290.361 113.329 308.981 130.469 301.901C157.899 290.561 223.479 298.411 223.479 298.411L221.909 256.441L236.769 273.441C236.769 273.441 243.719 277.541 252.079 272.311C264.799 264.101 301.639 218.751 301.639 218.751C298.089 210.301 286.719 206.271 286.719 206.271ZM121.119 271.751L118.129 268.761C112.949 265.631 93.6291 261.981 93.6291 261.981L107.229 242.331C107.229 242.331 121.579 264.531 122.209 266.411C122.839 268.291 121.119 271.751 121.119 271.751Z" fill="#FFF4E6"/>
<path d="M149.731 316.56L152.811 382.92C152.811 382.92 142.731 380.4 139.931 376.2C137.131 372 130.891 309.09 130.891 309.09C130.891 309.09 136.851 314.6 149.731 316.56Z" fill="#FF9500"/>
<path opacity="0.56" d="M149.731 316.56L152.811 382.92C152.811 382.92 142.731 380.4 139.931 376.2C137.131 372 130.891 309.09 130.891 309.09C130.891 309.09 136.851 314.6 149.731 316.56Z" fill="#FFF4E6"/>
<path d="M122.64 267.49L106.91 242.95L120.11 225.5C120.11 225.5 121.08 235.37 126.96 239.95C136.33 247.26 134.27 269.73 134.27 269.73L122.64 267.49Z" fill="#FF9500"/>
<path opacity="0.6" d="M122.64 267.49L106.91 242.95L120.11 225.5C120.11 225.5 121.08 235.37 126.96 239.95C136.33 247.26 134.27 269.73 134.27 269.73L122.64 267.49Z" fill="#FFF4E6"/>
<path d="M218.48 203.561C218.48 203.561 229.92 254.461 236.55 262.591C243.18 270.721 243.32 239.081 245.66 238.641C248 238.201 251.91 257.171 250.4 262.901C250.4 262.901 251.3 265.911 254.62 262.901C257.93 259.891 299.19 221.641 299.19 221.641C299.19 221.641 256.8 275.271 244.68 274.941C234.43 276.351 223.36 258.041 223.36 258.041L218.48 203.561Z" fill="#FF9500"/>
<path opacity="0.6" d="M218.48 203.561C218.48 203.561 229.92 254.461 236.55 262.591C243.18 270.721 243.32 239.081 245.66 238.641C248 238.201 251.91 257.171 250.4 262.901C250.4 262.901 251.3 265.911 254.62 262.901C257.93 259.891 299.19 221.641 299.19 221.641C299.19 221.641 256.8 275.271 244.68 274.941C234.43 276.351 223.36 258.041 223.36 258.041L218.48 203.561Z" fill="#FFF4E6"/>
<path d="M95.6686 258.821L93.1286 262.221C93.1286 262.221 72.7986 259.671 56.3786 290.711C51.3086 288.951 46.3886 288.491 43.0486 281.341C43.0486 281.341 42.8286 273.711 47.3586 266.751C51.8886 259.771 81.3586 201.941 81.3586 201.941C81.3586 201.941 85.8086 196.881 91.5986 193.321C112.619 182.221 132.499 178.761 138.419 174.321L140.229 171.601L137.739 160.741C137.739 160.741 142.239 159.241 148.669 157.561L151.989 171.731C153.119 176.561 150.519 181.481 145.889 183.271L97.9486 201.781C94.8486 202.971 92.3186 205.291 90.8486 208.261L64.5686 261.341C65.0286 260.871 75.4786 250.241 95.6686 258.821Z" fill="#FF9500"/>
<path opacity="0.6" d="M95.6686 258.821L93.1286 262.221C93.1286 262.221 72.7986 259.671 56.3786 290.711C51.3086 288.951 46.3886 288.491 43.0486 281.341C43.0486 281.341 42.8286 273.711 47.3586 266.751C51.8886 259.771 81.3586 201.941 81.3586 201.941C81.3586 201.941 87.6586 196.231 91.5986 193.321C111.509 183.051 132.499 178.761 138.419 174.321L140.229 171.601L137.739 160.741C137.739 160.741 142.239 159.241 148.669 157.561L151.989 171.731C153.119 176.561 150.519 181.481 145.889 183.271L97.9486 201.781C94.8486 202.971 92.3186 205.291 90.8486 208.261L64.5686 261.341C65.0286 260.871 75.4786 250.241 95.6686 258.821Z" fill="#FFF4E6"/>
<path d="M290.918 203.721L303.568 185.821C303.568 185.821 312.518 179.801 315.758 178.261C318.998 176.721 319.458 173.631 321.008 174.711C322.548 175.791 321.158 182.121 317.918 184.121C314.678 186.131 310.978 188.131 311.438 189.521C311.898 190.911 330.728 189.211 330.728 189.211C330.728 189.211 354.738 188.881 355.078 190.741C355.418 192.601 340.138 195.381 340.138 195.381C340.138 195.381 356.568 195.191 356.608 196.131C356.648 197.071 347.238 200.311 347.238 200.311C347.238 200.311 353.888 200.661 353.578 202.101C353.258 203.551 346.468 205.401 346.468 205.401C346.468 205.401 332.578 213.891 329.498 215.271C326.408 216.661 305.278 214.041 305.278 214.041L301.668 218.711C301.668 218.711 295.558 210.031 289.078 206.331L290.918 203.721Z" fill="#FFF4E6"/>
<path d="M244.27 258.751C245.23 252.101 245.5 245.521 245.56 238.801" stroke="#151716" stroke-width="0.9535" stroke-miterlimit="10" stroke-linecap="round" stroke-linejoin="round"/>
<path d="M175.238 153.121C176.268 153.081 177.308 153.061 178.368 153.051L179.388 159.501C179.728 161.641 181.558 163.211 183.718 163.231L216.268 165.441C218.658 165.461 227.728 177.851 229.258 182.521L245.658 238.631L286.728 206.021C286.728 206.021 294.768 207.111 301.658 218.711C301.658 218.711 275.218 253.911 251.218 272.691C247.708 275.431 239.848 276.051 236.718 272.891C231.448 267.571 226.668 262.811 222.978 257.931" stroke="#151716" stroke-width="0.9535" stroke-miterlimit="10" stroke-linecap="round" stroke-linejoin="round"/>
<path d="M113.719 241.611C116.459 239.841 119.209 238.071 121.949 236.301" stroke="#151716" stroke-width="0.9535" stroke-miterlimit="10" stroke-linecap="round" stroke-linejoin="round"/>
<path d="M116.762 243.4C118.932 242.7 121.232 242.39 123.522 242.5" stroke="#151716" stroke-width="0.9535" stroke-miterlimit="10" stroke-linecap="round" stroke-linejoin="round"/>
<path d="M107.241 242.811C112.241 249.781 116.881 257.011 121.121 264.471C122.071 266.141 122.341 268.101 121.921 269.971L101.941 358.351" stroke="#151716" stroke-width="0.9535" stroke-miterlimit="10" stroke-linecap="round" stroke-linejoin="round"/>
<path d="M216.27 189.75L223.17 256.32C223.63 271.26 224.74 280.72 225.39 299.44" stroke="#151716" stroke-width="0.9535" stroke-miterlimit="10" stroke-linecap="round" stroke-linejoin="round"/>
<path d="M139.401 173.801L148.671 233.141L161.071 229.001C169.601 226.151 178.591 224.881 187.581 225.251L200.241 225.781L184.981 162.641H190.771L223.371 258.051L225.381 300.361C225.381 300.361 164.731 287.051 130.751 305.001L133.421 331.021C133.421 331.021 135.031 338.141 136.741 358.871L109.741 358.381L101.941 358.351L121.641 271.881C121.641 271.881 138.681 273.141 138.151 259.461C137.621 245.781 132.961 177.031 132.961 177.031L139.401 173.801Z" fill="#151716"/>
<path d="M164.089 173.24C164.089 174.8 162.829 176.06 161.269 176.06C159.709 176.06 158.449 174.8 158.449 173.24C158.449 171.68 159.709 170.42 161.269 170.42C162.829 170.42 164.089 171.68 164.089 173.24Z" fill="#151716"/>
<path d="M167.312 186.941C167.312 188.501 166.052 189.761 164.492 189.761C162.932 189.761 161.672 188.501 161.672 186.941C161.672 185.381 162.932 184.121 164.492 184.121C166.052 184.121 167.312 185.381 167.312 186.941Z" fill="#151716"/>
<path d="M182.121 262.271C192.311 260.551 202.571 259.201 212.861 258.221" stroke="#FFF4E6" stroke-width="0.9535" stroke-miterlimit="10" stroke-linecap="round" stroke-linejoin="round"/>
<path d="M164.5 265.62C168.69 264.74 172.89 263.91 177.1 263.15" stroke="#FFF4E6" stroke-width="0.9535" stroke-miterlimit="10" stroke-linecap="round" stroke-linejoin="round"/>
<path d="M212.879 261.871C204.589 265.211 196.229 268.381 187.809 271.371" stroke="#FFF4E6" stroke-width="0.9535" stroke-miterlimit="10" stroke-linecap="round" stroke-linejoin="round"/>
<path d="M210.941 191.08C211.801 196.49 213.051 201.85 214.671 207.09" stroke="#151716" stroke-width="0.9535" stroke-miterlimit="10" stroke-linecap="round" stroke-linejoin="round"/>
<path d="M330.901 196.87C330.901 196.87 354.951 192.91 355.071 190.76C355.201 188.61 337.791 189.72 333.681 189.41C329.571 189.1 312.361 191.26 311.791 190.18C311.221 189.1 312.611 188.85 316.411 185.69C320.201 182.52 322.991 176.95 321.971 175.18C320.961 173.41 317.571 177.34 315.001 178.78C312.911 179.95 305.021 184.43 303.571 186.39C302.121 188.35 292.631 201.47 289.031 206.47" stroke="#151716" stroke-width="0.9535" stroke-miterlimit="10" stroke-linecap="round" stroke-linejoin="round"/>
<path d="M331.43 196.629C331.43 196.629 356.7 194.299 356.61 196.149C356.45 199.219 339.5 201.639 332.56 202.119" stroke="#151716" stroke-width="0.9535" stroke-miterlimit="10" stroke-linecap="round" stroke-linejoin="round"/>
<path d="M332.4 202.281C332.4 202.281 353.89 199.271 353.57 202.121C353.26 204.971 328.82 209.581 328.82 209.581" stroke="#151716" stroke-width="0.9535" stroke-miterlimit="10" stroke-linecap="round" stroke-linejoin="round"/>
<path d="M300.77 219.871C303.18 216.411 304.79 214.031 304.79 214.031C304.79 214.031 325.48 216.301 328.46 215.731C331.43 215.161 345.39 206.211 345.39 206.211" stroke="#151716" stroke-width="0.9535" stroke-miterlimit="10" stroke-linecap="round" stroke-linejoin="round"/>
<path d="M309.91 196.75C314.47 197.25 318.65 200.39 320.4 204.63" stroke="#151716" stroke-width="0.9535" stroke-miterlimit="10" stroke-linecap="round" stroke-linejoin="round"/>
<path d="M248.84 240.82C251.17 244.39 251.43 248.88 251.61 253.14" stroke="#151716" stroke-width="0.9535" stroke-miterlimit="10" stroke-linecap="round" stroke-linejoin="round"/>
<path d="M130.859 306.192L138.269 369.442C138.269 369.442 137.919 376.102 143.509 379.472C149.099 382.842 173.599 388.252 187.279 387.392C200.959 386.542 218.339 385.682 224.599 380.842C230.869 376.002 229.439 362.892 229.439 362.892L233.999 323.292C233.999 323.292 238.149 308.172 233.149 303.632C224.029 295.372 146.999 289.102 130.859 306.192Z" fill="#FFF4E6"/>
<path d="M130.879 309.101C130.879 309.101 135.079 313.001 141.079 314.801C147.079 316.601 220.919 314.481 230.069 312.691C239.219 310.901 235.919 303.401 230.819 301.301C225.719 299.201 178.349 292.301 157.429 297.061C138.829 301.281 127.279 301.591 130.879 309.101Z" fill="#FF9500"/>
<path opacity="0.6" d="M130.879 309.1C130.879 309.1 135.079 313 141.079 314.8C147.079 316.6 220.919 314.48 230.069 312.69C239.219 310.9 235.919 303.4 230.819 301.3C225.719 299.2 183.929 293.14 158.729 296.58C140.129 300.78 127.279 301.59 130.879 309.1Z" fill="#FFF4E6"/>
<path d="M235.98 307.28C235.98 309.23 233.85 311.08 230.07 312.69C221.26 316.49 203.51 319.07 183.06 319.07C163.53 319.07 146.48 316.72 137.32 313.21C132.77 311.47 130.16 309.45 130.16 307.28C130.16 300.76 153.85 295.48 183.07 295.48C212.29 295.48 235.98 300.75 235.98 307.28Z" stroke="#151716" stroke-width="0.9535" stroke-miterlimit="10" stroke-linecap="round" stroke-linejoin="round"/>
<path d="M230.078 312.692C221.268 316.492 203.518 319.072 183.068 319.072C163.538 319.072 146.488 316.722 137.328 313.212C144.168 308.932 162.548 305.852 184.138 305.852C204.858 305.842 222.618 308.682 230.078 312.692Z" fill="#151716"/>
<path d="M130.16 307.281L138.43 372.551C138.82 375.591 140.74 378.211 143.52 379.471C153.93 384.171 181.89 393.601 221.78 382.551C225.21 381.601 227.71 378.621 228.12 375.081L230.65 353.331L230.9 351.111L232.94 333.551L233.39 329.661L235.98 307.271" stroke="#151716" stroke-width="0.9535" stroke-miterlimit="10" stroke-linecap="round" stroke-linejoin="round"/>
<path d="M174.148 388.372C174.148 388.372 169.798 384.143 171.836 378.646C171.836 378.646 166.063 381.048 165.893 385.277C165.893 385.277 157.4 383.301 158.423 373C158.423 373 153.665 379.347 157.912 386.262C162.158 393.184 174.148 388.372 174.148 388.372Z" fill="#151716"/>
<path d="M197.148 387.221C197.148 387.221 205.839 378.892 208.071 364C208.071 364 210.875 372.639 207.792 383.057C207.792 383.057 215.924 379.782 217.878 369.661C217.878 369.661 219.565 380.967 214.516 387.221C209.466 393.474 197.148 387.221 197.148 387.221Z" fill="#151716"/>
<path d="M251.247 335.691C248.877 344.001 240.357 353.061 230.637 353.331L230.887 351.111C239.207 350.681 246.977 342.581 249.107 335.081C249.627 333.261 250.497 328.801 247.367 326.781C245.607 325.671 243.877 325.331 242.047 325.781C237.297 326.941 233.777 332.941 233.747 333.011C233.567 333.321 233.257 333.511 232.927 333.551L233.377 329.661C235.017 327.521 237.907 324.521 241.517 323.631C243.937 323.051 246.297 323.481 248.557 324.921C251.657 326.901 252.627 330.831 251.247 335.691Z" fill="#151716"/>
<path d="M175.098 310.831C180.518 313.901 187.198 314.071 193.258 312.641C195.358 312.151 197.458 311.451 199.238 310.221" stroke="#FFF4E6" stroke-width="0.9535" stroke-miterlimit="10" stroke-linecap="round" stroke-linejoin="round"/>
<path d="M207.168 311.24C205.488 312.93 203.408 314.22 201.148 314.98" stroke="#FFF4E6" stroke-width="0.9535" stroke-miterlimit="10" stroke-linecap="round" stroke-linejoin="round"/>
<path d="M137.368 355.212C117.548 357.552 115.588 334.682 120.918 331.062C126.248 327.442 136.728 339.822 136.728 339.822" stroke="#FFF4E6" stroke-width="1.907" stroke-miterlimit="10" stroke-linecap="round" stroke-linejoin="round"/>
<path d="M189.708 310.221L150.378 238.741C150.378 238.741 146.068 236.161 146.358 241.321C146.648 246.491 182.868 310.671 182.868 310.671L189.708 310.221Z" fill="#FFF4E6" stroke="#151716" stroke-width="0.9535" stroke-miterlimit="10" stroke-linecap="round" stroke-linejoin="round"/>
<path d="M174.766 325.69C186.666 326.42 201.716 326.14 214.676 322.15" stroke="#151716" stroke-width="0.9535" stroke-miterlimit="10" stroke-linecap="round" stroke-linejoin="round"/>
<path d="M153.816 323.16C153.816 323.16 157.816 323.97 164.116 324.73" stroke="#151716" stroke-width="0.9535" stroke-miterlimit="10" stroke-linecap="round" stroke-linejoin="round"/>
<path d="M116.46 231.441C108.4 240.531 101.07 250.271 94.5703 260.541" stroke="#151716" stroke-width="0.9535" stroke-miterlimit="10" stroke-linecap="round" stroke-linejoin="round"/>
<path d="M90.0286 260.15C85.1886 259.02 80.0286 259.26 75.3086 260.84" stroke="#151716" stroke-width="0.9535" stroke-miterlimit="10" stroke-linecap="round" stroke-linejoin="round"/>
<path d="M88.4297 200.352C88.4297 200.352 106.47 210.662 113.1 226.492" stroke="#151716" stroke-width="0.9535" stroke-miterlimit="10" stroke-linecap="round" stroke-linejoin="round"/>
<path d="M103.328 264.76C103.668 277.68 111.718 290.89 111.718 290.89L141.308 286.37L139.348 280.64C140.358 281.14 142.408 280.97 143.798 281.29C152.508 283.32 166.828 282.92 166.828 282.92C170.088 279.97 171.138 278.2 172.088 276.53C174.498 272.27 172.228 271.11 172.228 271.11C175.718 266.22 173.038 262.69 173.038 262.69C178.198 259.75 175.998 258.13 175.998 258.13C172.678 252.94 153.088 255.18 153.088 255.18L135.888 269.67L124.238 267.63L103.328 264.76Z" fill="#FFF4E6"/>
<path d="M134.289 269.851L136.869 269.011L153.079 255.181C153.079 255.181 174.239 254.061 175.749 257.861C177.269 261.661 172.849 263.421 169.059 264.931" stroke="#151716" stroke-width="0.9535" stroke-miterlimit="10" stroke-linecap="round" stroke-linejoin="round"/>
<path d="M172.341 263.582C172.341 263.582 177.571 265.872 170.391 272.232" stroke="#151716" stroke-width="0.9535" stroke-miterlimit="10" stroke-linecap="round" stroke-linejoin="round"/>
<path d="M171.651 271.271C173.951 269.971 175.461 275.831 167.391 278.651" stroke="#151716" stroke-width="0.9535" stroke-miterlimit="10" stroke-linecap="round" stroke-linejoin="round"/>
<path d="M172.238 276.912L166.328 283.262C166.328 283.262 153.018 284.422 141.048 280.562L139.738 280.942" stroke="#151716" stroke-width="0.9535" stroke-miterlimit="10" stroke-linecap="round" stroke-linejoin="round"/>
<path d="M71.22 271.821C76.81 265.811 84.96 262.241 93.17 262.221C94.88 262.221 96.57 262.551 98.2 263.061C103.99 264.861 127.78 267.571 135.04 270.121L141.34 286.031C116.43 292.331 83.22 292.841 63.26 291.921C58.86 291.721 53.6 290.171 48.94 287.791C43.49 285.011 41.4 278.281 44.24 272.861L80.07 203.891C81.05 202.021 88.04 195.421 90 194.641L108.26 185.831C109.63 185.151 112.79 183.811 114.25 183.331L134.44 176.561C135.98 175.951 140.4 172.411 140 170.801L137.51 160.641C137.51 160.641 153.35 153.951 175.23 153.131" stroke="#151716" stroke-width="0.9535" stroke-miterlimit="10" stroke-linecap="round" stroke-linejoin="round"/>
<path d="M38.1569 146.541H16.5469V159.581H38.1569V146.541Z" stroke="#151716" stroke-width="0.9535" stroke-miterlimit="10" stroke-linecap="round" stroke-linejoin="round"/>
<path d="M47.7662 163.352H26.1562V176.392H47.7662V163.352Z" stroke="#151716" stroke-width="0.9535" stroke-miterlimit="10" stroke-linecap="round" stroke-linejoin="round"/>
<path d="M390.946 142.301H369.336V155.341H390.946V142.301Z" stroke="#151716" stroke-width="0.9535" stroke-miterlimit="10" stroke-linecap="round" stroke-linejoin="round"/>
<path d="M377.477 159.111H355.867V172.151H377.477V159.111Z" stroke="#151716" stroke-width="0.9535" stroke-miterlimit="10" stroke-linecap="round" stroke-linejoin="round"/>
<path d="M73.1459 324.291H55.0859V329.151H73.1459V324.291Z" stroke="#151716" stroke-width="0.9535" stroke-miterlimit="10" stroke-linecap="round" stroke-linejoin="round"/>
<path d="M83.3867 308.561H63.1367V321.601H83.3867V308.561Z" stroke="#151716" stroke-width="0.9535" stroke-miterlimit="10" stroke-linecap="round" stroke-linejoin="round"/>
<path d="M242.129 64.54V9.75H379.569V106.66H359.089" stroke="#151716" stroke-width="0.9535" stroke-miterlimit="10" stroke-linecap="round" stroke-linejoin="round"/>
<path d="M242.129 84.5406V76.3105" stroke="#151716" stroke-width="0.9535" stroke-miterlimit="10" stroke-linecap="round" stroke-linejoin="round"/>
<path d="M260.559 106.659H242.129V89.9395" stroke="#151716" stroke-width="0.9535" stroke-miterlimit="10" stroke-linecap="round" stroke-linejoin="round"/>
<path d="M277.357 21.4591C278.418 21.4591 279.277 20.5995 279.277 19.5391C279.277 18.4788 278.418 17.6191 277.357 17.6191C276.297 17.6191 275.438 18.4788 275.438 19.5391C275.438 20.5995 276.297 21.4591 277.357 21.4591Z" stroke="#151716" stroke-width="0.9535" stroke-miterlimit="10" stroke-linecap="round" stroke-linejoin="round"/>
<path d="M312.797 19.6895C312.797 20.7495 311.937 21.6095 310.877 21.6095C309.817 21.6095 308.957 20.7495 308.957 19.6895C308.957 18.6295 309.817 17.7695 310.877 17.7695C311.937 17.7695 312.797 18.6295 312.797 19.6895Z" stroke="#151716" stroke-width="0.9535" stroke-miterlimit="10" stroke-linecap="round" stroke-linejoin="round"/>
<path d="M346.656 19.5391C346.656 20.5991 345.796 21.4591 344.736 21.4591C343.676 21.4591 342.816 20.5991 342.816 19.5391C342.816 18.4791 343.676 17.6191 344.736 17.6191C345.796 17.6191 346.656 18.4791 346.656 19.5391Z" stroke="#151716" stroke-width="0.9535" stroke-miterlimit="10" stroke-linecap="round" stroke-linejoin="round"/>
<path d="M284.127 92.6372C282.484 92.7918 281.049 91.5647 280.936 89.9286L277.175 32.7147C277.095 30.6342 276.249 28.8774 274.176 29.0471L272.76 29.163C270.717 29.3303 269.139 30.4026 269.356 32.4317L275.426 90.4097C275.6 92.0409 274.394 93.4842 272.759 93.618L272.56 93.6343C270.965 93.7649 269.784 95.1458 269.885 96.7429L271.682 123.235C271.876 126.098 274.4 128.24 277.258 127.976L286.666 127.085C289.504 126.822 291.583 124.274 291.26 121.431L288.323 95.1131C288.144 93.5325 286.735 92.3836 285.142 92.534L284.127 92.6372Z" stroke="#151716" stroke-width="0.9535" stroke-miterlimit="10" stroke-linecap="round" stroke-linejoin="round"/>
<path d="M271.826 33.4326C271.75 32.4957 272.445 31.6763 273.382 31.5996C274.319 31.5229 275.138 32.2183 275.215 33.1552C275.292 34.0921 274.596 34.9115 273.659 34.9882C272.722 35.055 271.902 34.3595 271.826 33.4326Z" stroke="#151716" stroke-width="0.9535" stroke-miterlimit="10" stroke-linecap="round" stroke-linejoin="round"/>
<path d="M274.566 120.721L273.359 105.98" stroke="#151716" stroke-width="0.9535" stroke-miterlimit="10" stroke-linecap="round" stroke-linejoin="round"/>
<path d="M277.379 120.491L276.172 105.75" stroke="#151716" stroke-width="0.9535" stroke-miterlimit="10" stroke-linecap="round" stroke-linejoin="round"/>
<path d="M280.587 119.987L279.371 105.508" stroke="#151716" stroke-width="0.9535" stroke-miterlimit="10" stroke-linecap="round" stroke-linejoin="round"/>
<path d="M284.05 119.895L282.844 105.154" stroke="#151716" stroke-width="0.9535" stroke-miterlimit="10" stroke-linecap="round" stroke-linejoin="round"/>
<path d="M287.687 119.567L286.48 104.826" stroke="#151716" stroke-width="0.9535" stroke-miterlimit="10" stroke-linecap="round" stroke-linejoin="round"/>
<path d="M339.834 34.207C339.764 33.2696 340.465 32.4551 341.402 32.3851C342.34 32.3152 343.154 33.0165 343.224 33.9538C343.294 34.8912 342.593 35.7057 341.655 35.7757C340.718 35.8457 339.904 35.1444 339.834 34.207Z" stroke="#151716" stroke-width="0.9535" stroke-miterlimit="10" stroke-linecap="round" stroke-linejoin="round"/>
<path d="M346.534 96.671L345.364 33.0516C345.328 30.9585 343.532 29.3277 341.447 29.4833L340.789 29.5324C338.755 29.6843 337.235 31.4825 337.426 33.5139L341.037 71.1294C341.864 79.7819 342.69 88.4344 343.537 97.0854C343.614 97.8518 343.268 98.5896 342.651 99.0568C340.345 100.803 338.855 103.552 338.185 106.39C337.301 110.136 337.414 114.47 338.355 118.21C339.397 122.364 342.662 126.743 347.276 127.02C351.809 127.293 354.734 123.094 355.62 119.107C356.511 115.059 356.644 110.256 355.335 106.292C354.712 104.394 353.632 102.689 352.286 101.185C351.389 100.179 349.52 99.1957 348.03 98.7053C347.146 98.4203 346.553 97.6022 346.534 96.671Z" stroke="#151716" stroke-width="0.9535" stroke-miterlimit="10" stroke-linecap="round" stroke-linejoin="round"/>
<path d="M340.906 117.047L340.273 108.58" stroke="#151716" stroke-width="0.9535" stroke-miterlimit="10" stroke-linecap="round" stroke-linejoin="round"/>
<path d="M353.003 116.144L352.371 107.678" stroke="#151716" stroke-width="0.9535" stroke-miterlimit="10" stroke-linecap="round" stroke-linejoin="round"/>
<path d="M344.65 118.733L343.711 106.158" stroke="#151716" stroke-width="0.9535" stroke-miterlimit="10" stroke-linecap="round" stroke-linejoin="round"/>
<path d="M350.384 118.304L349.445 105.729" stroke="#151716" stroke-width="0.9535" stroke-miterlimit="10" stroke-linecap="round" stroke-linejoin="round"/>
<path d="M347.761 122.622L346.371 104.004" stroke="#151716" stroke-width="0.9535" stroke-miterlimit="10" stroke-linecap="round" stroke-linejoin="round"/>
<path d="M312.303 33.6369C312.371 32.6994 313.184 31.9964 314.121 32.0644C315.059 32.1325 315.762 32.9455 315.694 33.883C315.626 34.8205 314.813 35.5235 313.875 35.4555C312.938 35.3875 312.235 34.5745 312.303 33.6369Z" stroke="#151716" stroke-width="0.9535" stroke-miterlimit="10" stroke-linecap="round" stroke-linejoin="round"/>
<path d="M312.252 89.7595L319.046 32.882C319.297 30.8147 317.767 28.9591 315.692 28.8086L313.189 28.627C311.104 28.4757 309.321 30.111 309.28 32.1935L308.212 89.8875C308.195 90.6783 307.762 91.3988 307.063 91.7792C303.914 93.4457 295.189 98.9989 294.215 109.656C293.028 122.695 307.358 129.57 316.167 125.346C324.789 121.219 332.171 102.113 313.378 91.9267C312.587 91.4983 312.149 90.6343 312.252 89.7595Z" stroke="#151716" stroke-width="0.9535" stroke-miterlimit="10" stroke-linecap="round" stroke-linejoin="round"/>
<path d="M308.351 120.146C308.388 119.637 308.827 119.258 309.336 119.295C309.844 119.332 310.223 119.771 310.187 120.279C310.15 120.788 309.711 121.167 309.202 121.13C308.694 121.093 308.314 120.655 308.351 120.146Z" stroke="#151716" stroke-width="0.9535" stroke-miterlimit="10" stroke-linecap="round" stroke-linejoin="round"/>
<path d="M303.507 118.402C304.014 118.439 304.454 118.058 304.491 117.551C304.528 117.044 304.147 116.603 303.64 116.567C303.133 116.53 302.693 116.911 302.656 117.418C302.619 117.924 303 118.365 303.507 118.402Z" stroke="#151716" stroke-width="0.9535" stroke-miterlimit="10" stroke-linecap="round" stroke-linejoin="round"/>
<path d="M315.366 119.263C315.873 119.3 316.314 118.919 316.351 118.412C316.387 117.905 316.006 117.465 315.5 117.428C314.993 117.391 314.552 117.772 314.515 118.279C314.479 118.786 314.86 119.226 315.366 119.263Z" stroke="#151716" stroke-width="0.9535" stroke-miterlimit="10" stroke-linecap="round" stroke-linejoin="round"/>
<path d="M308.789 114.164C308.826 113.655 309.264 113.276 309.773 113.313C310.282 113.35 310.661 113.788 310.624 114.297C310.587 114.806 310.149 115.185 309.64 115.148C309.131 115.111 308.752 114.672 308.789 114.164Z" stroke="#151716" stroke-width="0.9535" stroke-miterlimit="10" stroke-linecap="round" stroke-linejoin="round"/>
<path d="M303.941 112.417C304.447 112.454 304.888 112.073 304.925 111.566C304.962 111.06 304.581 110.619 304.074 110.582C303.567 110.545 303.126 110.926 303.09 111.433C303.053 111.94 303.434 112.381 303.941 112.417Z" stroke="#151716" stroke-width="0.9535" stroke-miterlimit="10" stroke-linecap="round" stroke-linejoin="round"/>
<path d="M315.8 113.279C316.307 113.315 316.747 112.934 316.784 112.428C316.821 111.921 316.44 111.48 315.933 111.444C315.426 111.407 314.986 111.788 314.949 112.295C314.912 112.801 315.293 113.242 315.8 113.279Z" stroke="#151716" stroke-width="0.9535" stroke-miterlimit="10" stroke-linecap="round" stroke-linejoin="round"/>
<path d="M309.222 108.168C309.259 107.659 309.698 107.28 310.207 107.317C310.715 107.353 311.095 107.792 311.058 108.301C311.021 108.809 310.582 109.189 310.073 109.152C309.565 109.115 309.186 108.676 309.222 108.168Z" stroke="#151716" stroke-width="0.9535" stroke-miterlimit="10" stroke-linecap="round" stroke-linejoin="round"/>
<path d="M303.515 105.439C303.552 104.93 303.991 104.551 304.5 104.588C305.008 104.625 305.388 105.064 305.351 105.572C305.314 106.081 304.875 106.46 304.366 106.423C303.858 106.386 303.479 105.948 303.515 105.439Z" stroke="#151716" stroke-width="0.9535" stroke-miterlimit="10" stroke-linecap="round" stroke-linejoin="round"/>
<path d="M315.383 106.3C315.42 105.792 315.858 105.412 316.367 105.449C316.875 105.486 317.255 105.925 317.218 106.434C317.181 106.942 316.742 107.321 316.234 107.285C315.725 107.248 315.346 106.809 315.383 106.3Z" stroke="#151716" stroke-width="0.9535" stroke-miterlimit="10" stroke-linecap="round" stroke-linejoin="round"/>
<path d="M309.957 98.0348C309.92 98.5434 310.299 98.982 310.808 99.0189C311.317 99.0559 311.755 98.6766 311.792 98.1679C311.829 97.6593 311.45 97.2207 310.941 97.1838C310.432 97.1469 309.994 97.5261 309.957 98.0348Z" stroke="#151716" stroke-width="0.9535" stroke-miterlimit="10" stroke-linecap="round" stroke-linejoin="round"/>
<path d="M303.914 99.9137C303.877 100.422 304.256 100.861 304.765 100.898C305.274 100.935 305.712 100.556 305.749 100.047C305.786 99.5382 305.407 99.0996 304.898 99.0627C304.389 99.0258 303.951 99.405 303.914 99.9137Z" stroke="#151716" stroke-width="0.9535" stroke-miterlimit="10" stroke-linecap="round" stroke-linejoin="round"/>
<path d="M315.785 100.773C315.748 101.282 316.127 101.72 316.636 101.757C317.145 101.794 317.583 101.415 317.62 100.906C317.657 100.398 317.278 99.959 316.769 99.922C316.261 99.8851 315.822 100.264 315.785 100.773Z" stroke="#151716" stroke-width="0.9535" stroke-miterlimit="10" stroke-linecap="round" stroke-linejoin="round"/>
</g>
<defs>
<clipPath id="clip0_2615_7854">
<rect width="416.7" height="389.6" fill="white" transform="translate(0.148438)"/>
</clipPath>
</defs>
</svg>
