<svg width="20" height="20" viewBox="0 0 20 20" fill="none" xmlns="http://www.w3.org/2000/svg">
<path d="M9.99982 16.169L5.33509 19.7306C5.10395 19.9197 4.85181 20.0092 4.57865 19.9991C4.30549 19.989 4.06385 19.91 3.85372 19.7621C3.6436 19.6142 3.48096 19.4145 3.36582 19.1632C3.25067 18.9119 3.24521 18.6388 3.34943 18.3438L5.14598 12.5128L0.575801 9.26644C0.323653 9.09834 0.166061 8.87771 0.103024 8.60455C0.0399868 8.33139 0.050493 8.07924 0.134542 7.84811C0.218592 7.61697 0.365678 7.41189 0.575801 7.23287C0.785924 7.05384 1.03807 6.96475 1.33224 6.96559H6.97405L8.80212 0.914042C8.90718 0.61987 9.07024 0.393778 9.29129 0.235765C9.51234 0.0777523 9.74852 -0.000833822 9.99982 6.67057e-06C10.2511 0.000847163 10.4877 0.0798537 10.7096 0.237026C10.9315 0.394198 11.0941 0.61987 11.1975 0.914042L13.0256 6.96559H18.6674C18.9616 6.96559 19.2137 7.0551 19.4238 7.23413C19.634 7.41315 19.7811 7.61781 19.8651 7.84811C19.9492 8.0784 19.9597 8.33055 19.8966 8.60455C19.8336 8.87855 19.676 9.09918 19.4238 9.26644L14.8537 12.5128L16.6502 18.3438C16.7553 18.6379 16.7502 18.9111 16.6351 19.1632C16.5199 19.4154 16.3569 19.615 16.1459 19.7621C15.935 19.9092 15.6933 19.9882 15.421 19.9991C15.1487 20.01 14.8965 19.9205 14.6646 19.7306L9.99982 16.169Z" fill="black"/>
</svg>
