<svg width="15" height="14" viewBox="0 0 15 14" fill="none" xmlns="http://www.w3.org/2000/svg">
<path d="M14.0322 1.64453C14.0322 1.37937 13.9268 1.12508 13.7393 0.937578C13.5518 0.750079 13.2975 0.644725 13.0324 0.644685L5.03217 0.644686C4.89941 0.642378 4.76752 0.666534 4.64419 0.715746C4.52086 0.764957 4.40857 0.838237 4.31386 0.93131C4.21916 1.02438 4.14394 1.13539 4.09259 1.25784C4.04124 1.3803 4.0148 1.51175 4.0148 1.64453C4.0148 1.77732 4.04124 1.90877 4.09259 2.03123C4.14394 2.15368 4.21916 2.26469 4.31386 2.35776C4.40857 2.45083 4.52086 2.52411 4.64419 2.57332C4.76752 2.62253 4.89941 2.64669 5.03217 2.64438L10.6183 2.64438L1.2541 12.0086C1.06657 12.1961 0.96121 12.4505 0.96121 12.7157C0.96121 12.9809 1.06657 13.2353 1.2541 13.4228C1.44164 13.6103 1.69599 13.7157 1.96121 13.7157C2.22643 13.7157 2.48078 13.6103 2.66832 13.4228L12.0325 4.0586L12.0325 9.64474C12.0371 9.90691 12.1444 10.1568 12.3314 10.3406C12.5185 10.5244 12.7702 10.6274 13.0324 10.6274C13.2946 10.6274 13.5463 10.5244 13.7333 10.3406C13.9203 10.1568 14.0277 9.90691 14.0322 9.64474L14.0322 1.64453Z" fill="#FFF4E6"/>
</svg>
