<svg width="32" height="32" viewBox="0 0 32 32" fill="none" xmlns="http://www.w3.org/2000/svg">
<path d="M25.3346 9.33268C25.3346 7.86602 24.1346 6.66602 22.668 6.66602H18.668V9.33268H22.668V12.866L18.028 18.666H13.3346V11.9993H8.0013C5.05464 11.9993 2.66797 14.386 2.66797 17.3327V21.3327H5.33464C5.33464 23.546 7.1213 25.3327 9.33463 25.3327C11.548 25.3327 13.3346 23.546 13.3346 21.3327H19.308L25.3346 13.7993V9.33268ZM9.33463 22.666C8.6013 22.666 8.0013 22.066 8.0013 21.3327H10.668C10.668 22.066 10.068 22.666 9.33463 22.666Z" fill="#FF9500"/>
<path d="M6.66797 8H13.3346V10.6667H6.66797V8ZM25.3346 17.3333C23.1213 17.3333 21.3346 19.12 21.3346 21.3333C21.3346 23.5467 23.1213 25.3333 25.3346 25.3333C27.548 25.3333 29.3346 23.5467 29.3346 21.3333C29.3346 19.12 27.548 17.3333 25.3346 17.3333ZM25.3346 22.6667C24.6013 22.6667 24.0013 22.0667 24.0013 21.3333C24.0013 20.6 24.6013 20 25.3346 20C26.068 20 26.668 20.6 26.668 21.3333C26.668 22.0667 26.068 22.6667 25.3346 22.6667Z" fill="#FF9500"/>
</svg>
