<svg width="23" height="16" viewBox="0 0 23 16" fill="none" xmlns="http://www.w3.org/2000/svg">
<path d="M11.5 5.30859C12.2956 5.30859 13.0587 5.62466 13.6213 6.18727C14.1839 6.74988 14.5 7.51294 14.5 8.30859C14.5 9.10424 14.1839 9.86731 13.6213 10.4299C13.0587 10.9925 12.2956 11.3086 11.5 11.3086C10.7044 11.3086 9.94129 10.9925 9.37868 10.4299C8.81607 9.86731 8.5 9.10424 8.5 8.30859C8.5 7.51294 8.81607 6.74988 9.37868 6.18727C9.94129 5.62466 10.7044 5.30859 11.5 5.30859ZM11.5 0.808594C16.5 0.808594 20.77 3.91859 22.5 8.30859C20.77 12.6986 16.5 15.8086 11.5 15.8086C6.5 15.8086 2.23 12.6986 0.5 8.30859C2.23 3.91859 6.5 0.808594 11.5 0.808594ZM2.68 8.30859C3.48825 9.9589 4.74331 11.3493 6.30248 12.3218C7.86165 13.2944 9.6624 13.8099 11.5 13.8099C13.3376 13.8099 15.1383 13.2944 16.6975 12.3218C18.2567 11.3493 19.5117 9.9589 20.32 8.30859C19.5117 6.65829 18.2567 5.26785 16.6975 4.29534C15.1383 3.32283 13.3376 2.80727 11.5 2.80727C9.6624 2.80727 7.86165 3.32283 6.30248 4.29534C4.74331 5.26785 3.48825 6.65829 2.68 8.30859Z" fill="#151716" fill-opacity="0.5"/>
</svg>
