<svg width="24" height="20" viewBox="0 0 24 20" fill="none" xmlns="http://www.w3.org/2000/svg">
<path d="M5.03906 1.48535C6.894 0.637538 9.38614 0.861978 11.7549 3.32324L12.377 3.96973L12.999 3.32324C15.3678 0.861834 17.8608 0.63803 19.7158 1.48633C21.6252 2.35966 23.0244 4.43617 23.0244 6.91113C23.0244 9.4396 21.9894 11.3891 20.5059 13.0596C19.371 14.3374 18.0135 15.4119 16.6699 16.4492L15.3398 17.4805L15.3389 17.4814C14.734 17.9593 14.1941 18.3786 13.6738 18.6826C13.1532 18.9869 12.7334 19.125 12.377 19.125C12.0208 19.1249 11.6018 18.986 11.0811 18.6816C10.6907 18.4535 10.289 18.1614 9.85742 17.8281L9.41504 17.4814C7.67061 16.1058 5.76248 14.7626 4.24902 13.0586C2.76547 11.3881 1.73058 9.43893 1.73047 6.91016C1.73047 4.43443 3.12962 2.35815 5.03906 1.48535Z" fill="#FF9500" stroke="#FF9500" stroke-width="1.7265"/>
</svg>
