<svg width="15" height="15" viewBox="0 0 15 15" fill="none" xmlns="http://www.w3.org/2000/svg">
<path d="M10.3217 2.3653L12.6293 4.67283M4.41214 4.1097H1.98487C1.77029 4.1097 1.56449 4.19495 1.41276 4.34668C1.26102 4.49841 1.17578 4.70421 1.17578 4.91879V13.0097C1.17578 13.2243 1.26102 13.4301 1.41276 13.5818C1.56449 13.7336 1.77029 13.8188 1.98487 13.8188H10.8849C11.0995 13.8188 11.3053 13.7336 11.457 13.5818C11.6087 13.4301 11.694 13.2243 11.694 13.0097V9.36879M13.6431 1.3507C13.7947 1.50225 13.9149 1.68218 13.997 1.88022C14.079 2.07825 14.1213 2.29051 14.1213 2.50487C14.1213 2.71923 14.079 2.93149 13.997 3.12953C13.9149 3.32756 13.7947 3.50749 13.6431 3.65904L8.10564 9.19646L5.22124 9.77334L5.79812 6.88893L11.3355 1.35151C11.487 1.19984 11.6668 1.07951 11.8648 0.997406C12.0628 0.915306 12.275 0.873047 12.4893 0.873047C12.7036 0.873047 12.9158 0.915306 13.1138 0.997406C13.3118 1.07951 13.4916 1.19984 13.6431 1.35151V1.3507Z" stroke="#FFF4E6" stroke-width="1.61818" stroke-linecap="round" stroke-linejoin="round"/>
</svg>
