<svg width="29" height="28" viewBox="0 0 29 28" fill="none" xmlns="http://www.w3.org/2000/svg">
<path d="M6 7.33398H24.3867C24.7592 7.334 25.1277 7.41208 25.4682 7.56319C25.8087 7.7143 26.1138 7.9351 26.3638 8.21134C26.6138 8.48758 26.8031 8.81313 26.9196 9.16702C27.0361 9.52091 27.0771 9.89527 27.04 10.266L26.24 18.266C26.1742 18.924 25.8663 19.5341 25.376 19.9778C24.8856 20.4216 24.248 20.6673 23.5867 20.6673H10.8533C10.2366 20.6676 9.6389 20.454 9.16193 20.0631C8.68495 19.6722 8.35821 19.1281 8.23733 18.5233L6 7.33398Z" stroke="#FFF4E6" stroke-width="3" stroke-linejoin="round"/>
<path d="M6 7.33333L4.92 3.00933C4.84777 2.721 4.68127 2.46508 4.44694 2.28221C4.21262 2.09934 3.9239 2.00001 3.62667 2H2M10 26H12.6667M20.6667 26H23.3333" stroke="#FFF4E6" stroke-width="3" stroke-linecap="round" stroke-linejoin="round"/>
</svg>
