<svg width="17" height="17" viewBox="0 0 17 17" fill="none" xmlns="http://www.w3.org/2000/svg">
<path d="M5.23578 14.7086C4.86044 14.7086 4.53924 14.5751 4.27218 14.308C4.00512 14.0409 3.87137 13.7195 3.87091 13.3437V4.4721C3.67756 4.4721 3.51559 4.40659 3.38502 4.27556C3.25445 4.14453 3.18893 3.98257 3.18848 3.78967C3.18802 3.59677 3.25354 3.4348 3.38502 3.30378C3.5165 3.17275 3.67847 3.10724 3.87091 3.10724H6.60064C6.60064 2.91388 6.66615 2.75192 6.79718 2.62135C6.92821 2.49077 7.09017 2.42526 7.28307 2.4248H10.0128C10.2062 2.4248 10.3684 2.49032 10.4994 2.62135C10.6304 2.75237 10.6957 2.91434 10.6952 3.10724H13.425C13.6183 3.10724 13.7805 3.17275 13.9115 3.30378C14.0426 3.4348 14.1079 3.59677 14.1074 3.78967C14.1069 3.98257 14.0414 4.14476 13.9109 4.27624C13.7803 4.40773 13.6183 4.47301 13.425 4.4721V13.3437C13.425 13.7191 13.2914 14.0405 13.0244 14.308C12.7573 14.5755 12.4359 14.709 12.0601 14.7086H5.23578ZM12.0601 4.4721H5.23578V13.3437H12.0601V4.4721ZM7.28307 11.9789C7.47643 11.9789 7.63862 11.9133 7.76965 11.7823C7.90068 11.6513 7.96596 11.4893 7.96551 11.2964V6.5194C7.96551 6.32604 7.89999 6.16408 7.76897 6.03351C7.63794 5.90294 7.47597 5.83742 7.28307 5.83697C7.09017 5.83651 6.92821 5.90203 6.79718 6.03351C6.66615 6.16499 6.60064 6.32695 6.60064 6.5194V11.2964C6.60064 11.4898 6.66615 11.652 6.79718 11.783C6.92821 11.914 7.09017 11.9793 7.28307 11.9789ZM10.0128 11.9789C10.2062 11.9789 10.3684 11.9133 10.4994 11.7823C10.6304 11.6513 10.6957 11.4893 10.6952 11.2964V6.5194C10.6952 6.32604 10.6297 6.16408 10.4987 6.03351C10.3677 5.90294 10.2057 5.83742 10.0128 5.83697C9.8199 5.83651 9.65794 5.90203 9.52691 6.03351C9.39588 6.16499 9.33037 6.32695 9.33037 6.5194V11.2964C9.33037 11.4898 9.39588 11.652 9.52691 11.783C9.65794 11.914 9.8199 11.9793 10.0128 11.9789Z" fill="#FFF4E6"/>
</svg>
