<svg width="24" height="29" viewBox="0 0 24 29" fill="none" xmlns="http://www.w3.org/2000/svg">
<path d="M9.33333 25.9993H14.6667C14.6667 27.466 13.4667 28.666 12 28.666C10.5333 28.666 9.33333 27.466 9.33333 25.9993ZM24 23.3327V24.666H0V23.3327L2.66667 20.666V12.666C2.66667 8.53268 5.33333 4.93268 9.33333 3.73268V3.33268C9.33333 1.86602 10.5333 0.666016 12 0.666016C13.4667 0.666016 14.6667 1.86602 14.6667 3.33268V3.73268C18.6667 4.93268 21.3333 8.53268 21.3333 12.666V20.666L24 23.3327ZM18.6667 12.666C18.6667 8.93268 15.7333 5.99935 12 5.99935C8.26667 5.99935 5.33333 8.93268 5.33333 12.666V21.9993H18.6667V12.666Z" fill="#FFF4E6"/>
</svg>
