<svg width="25" height="25" viewBox="0 0 25 25" fill="none" xmlns="http://www.w3.org/2000/svg">
<path d="M16.781 2.44595C15.6682 1.33031 14.1139 0.715942 12.3984 0.715942C10.6738 0.715942 9.11438 1.3266 8.00673 2.43533C6.88707 3.55628 6.34154 5.07972 6.46963 6.72477C6.72353 9.97026 9.38314 12.6104 12.3984 12.6104C15.4137 12.6104 18.0688 9.97079 18.3267 6.72583C18.4565 5.09565 17.9075 3.57539 16.781 2.44595ZM22.4628 24.5049H2.33411C2.07065 24.508 1.80973 24.4567 1.57035 24.3544C1.33096 24.2522 1.11913 24.1017 0.950266 23.9139C0.578572 23.5013 0.428751 22.9379 0.539687 22.3681C1.02232 19.882 2.52854 17.7935 4.89594 16.3274C6.99916 15.0259 9.66334 14.3096 12.3984 14.3096C15.1335 14.3096 17.7977 15.0265 19.9009 16.3274C22.2683 17.793 23.7746 19.8814 24.2572 22.3676C24.3681 22.9373 24.2183 23.5007 23.8466 23.9133C23.6778 24.1012 23.466 24.2518 23.2266 24.3542C22.9872 24.4565 22.7263 24.508 22.4628 24.5049Z" fill="#FF9500"/>
</svg>
