<svg width="25" height="21" viewBox="0 0 25 21" fill="none" xmlns="http://www.w3.org/2000/svg">
<path d="M5.32171 20.3768L7.15329 15.7979C7.33645 15.3298 7.63154 14.9582 8.03855 14.683C8.44557 14.4079 8.90347 14.2707 9.41224 14.2715H11.427V9.35681C8.31329 9.25506 5.70309 8.79716 3.59636 7.98313C1.48964 7.16909 0.436686 6.2126 0.4375 5.11365C0.4375 3.9333 1.62803 2.92593 4.00908 2.09155C6.39013 1.25716 9.26978 0.839966 12.648 0.839966C16.0466 0.839966 18.9316 1.25716 21.3028 2.09155C23.6741 2.92593 24.8594 3.9333 24.8586 5.11365C24.8586 6.2126 23.8052 7.16909 21.6985 7.98313C19.5917 8.79716 16.9819 9.25506 13.8691 9.35681V14.2715H15.8838C16.3722 14.2715 16.8252 14.4091 17.2428 14.6843C17.6604 14.9594 17.9604 15.3306 18.1428 15.7979L19.9743 20.3768H17.5322L16.067 16.7137H9.22908L7.76382 20.3768H5.32171Z" fill="#FF9500"/>
</svg>
