<svg width="19" height="18" viewBox="0 0 19 18" fill="none" xmlns="http://www.w3.org/2000/svg">
<path d="M1.914 5.85348L1.207 6.56048L0.5 5.85348L1.207 5.14648L1.914 5.85348ZM6.914 17.8535C6.64878 17.8535 6.39443 17.7481 6.20689 17.5606C6.01936 17.3731 5.914 17.1187 5.914 16.8535C5.914 16.5883 6.01936 16.3339 6.20689 16.1464C6.39443 15.9588 6.64878 15.8535 6.914 15.8535V17.8535ZM6.207 11.5605L1.207 6.56048L2.621 5.14648L7.621 10.1465L6.207 11.5605ZM1.207 5.14648L6.207 0.146484L7.621 1.56048L2.621 6.56048L1.207 5.14648ZM1.914 4.85348H12.414V6.85348H1.914V4.85348ZM12.414 17.8535H6.914V15.8535H12.414V17.8535ZM18.914 11.3535C18.914 13.0774 18.2292 14.7307 17.0102 15.9497C15.7912 17.1687 14.1379 17.8535 12.414 17.8535V15.8535C13.0049 15.8535 13.5901 15.7371 14.1361 15.5109C14.682 15.2848 15.1781 14.9533 15.596 14.5355C16.0138 14.1176 16.3453 13.6215 16.5715 13.0756C16.7976 12.5296 16.914 11.9444 16.914 11.3535H18.914ZM12.414 4.85348C14.1379 4.85348 15.7912 5.5383 17.0102 6.75729C18.2292 7.97628 18.914 9.62958 18.914 11.3535H16.914C16.914 10.7625 16.7976 10.1774 16.5715 9.63141C16.3453 9.08544 16.0138 8.58937 15.596 8.1715C15.1781 7.75364 14.682 7.42217 14.1361 7.19603C13.5901 6.96988 13.0049 6.85348 12.414 6.85348V4.85348Z" fill="#FFF4E6"/>
</svg>
