<svg width="29" height="29" viewBox="0 0 29 29" fill="none" xmlns="http://www.w3.org/2000/svg">
<path d="M7.03906 5.48535C8.894 4.63754 11.3861 4.86198 13.7549 7.32324L14.377 7.96973L14.999 7.32324C17.3678 4.86183 19.8608 4.63803 21.7158 5.48633C23.6252 6.35966 25.0244 8.43617 25.0244 10.9111C25.0244 13.4396 23.9894 15.3891 22.5059 17.0596C21.371 18.3374 20.0135 19.4119 18.6699 20.4492L17.3398 21.4805L17.3389 21.4814C16.734 21.9593 16.1941 22.3786 15.6738 22.6826C15.1532 22.9869 14.7334 23.125 14.377 23.125C14.0208 23.1249 13.6018 22.986 13.0811 22.6816C12.6907 22.4535 12.289 22.1614 11.8574 21.8281L11.415 21.4814C9.67061 20.1058 7.76248 18.7626 6.24902 17.0586C4.76547 15.3881 3.73058 13.4389 3.73047 10.9102C3.73047 8.43443 5.12962 6.35815 7.03906 5.48535Z" fill="#FF9500" stroke="#FF9500" stroke-width="1.7265"/>
</svg>
