<svg width="16" height="17" viewBox="0 0 16 17" fill="none" xmlns="http://www.w3.org/2000/svg">
<path d="M9.9832 4.47227C10.0751 4.47227 10.1662 4.45416 10.2511 4.41898C10.336 4.3838 10.4132 4.33224 10.4782 4.26724C10.5432 4.20224 10.5947 4.12507 10.6299 4.04014C10.6651 3.95522 10.6832 3.86419 10.6832 3.77227C10.6832 3.68034 10.6651 3.58932 10.6299 3.50439C10.5947 3.41946 10.5432 3.34229 10.4782 3.27729C10.4132 3.21229 10.336 3.16073 10.2511 3.12555C10.1662 3.09037 10.0751 3.07227 9.9832 3.07227C9.79755 3.07227 9.6195 3.14602 9.48823 3.27729C9.35695 3.40857 9.2832 3.58661 9.2832 3.77227C9.2832 3.95792 9.35695 4.13597 9.48823 4.26724C9.6195 4.39852 9.79755 4.47227 9.9832 4.47227ZM10.1632 7.24727C10.1632 7.48994 10.0668 7.72267 9.89521 7.89427C9.72361 8.06586 9.49088 8.16227 9.2482 8.16227C9.00553 8.16227 8.7728 8.06586 8.6012 7.89427C8.42961 7.72267 8.3332 7.48994 8.3332 7.24727C8.3332 7.00459 8.42961 6.77186 8.6012 6.60026C8.7728 6.42867 9.00553 6.33227 9.2482 6.33227C9.49088 6.33227 9.72361 6.42867 9.89521 6.60026C10.0668 6.77186 10.1632 7.00459 10.1632 7.24727ZM5.8382 10.0023C5.8382 10.225 5.7497 10.4387 5.59217 10.5962C5.43464 10.7538 5.22098 10.8423 4.9982 10.8423C4.77542 10.8423 4.56176 10.7538 4.40423 10.5962C4.2467 10.4387 4.1582 10.225 4.1582 10.0023C4.1582 9.77948 4.2467 9.56583 4.40423 9.4083C4.56176 9.25076 4.77542 9.16227 4.9982 9.16227C5.22098 9.16227 5.43464 9.25076 5.59217 9.4083C5.7497 9.56583 5.8382 9.77948 5.8382 10.0023ZM5.6532 13.0173C5.80703 13.0173 5.95455 12.9562 6.06332 12.8474C6.1721 12.7386 6.2332 12.5911 6.2332 12.4373C6.2332 12.2834 6.1721 12.1359 6.06332 12.0271C5.95455 11.9184 5.80703 11.8573 5.6532 11.8573C5.49938 11.8573 5.35185 11.9184 5.24308 12.0271C5.13431 12.1359 5.0732 12.2834 5.0732 12.4373C5.0732 12.5911 5.13431 12.7386 5.24308 12.8474C5.35185 12.9562 5.49938 13.0173 5.6532 13.0173ZM12.8282 7.82727C12.8282 7.98109 12.7671 8.12862 12.6583 8.23739C12.5496 8.34616 12.402 8.40727 12.2482 8.40727C12.0944 8.40727 11.9469 8.34616 11.8381 8.23739C11.7293 8.12862 11.6682 7.98109 11.6682 7.82727C11.6682 7.67344 11.7293 7.52592 11.8381 7.41714C11.9469 7.30837 12.0944 7.24727 12.2482 7.24727C12.402 7.24727 12.5496 7.30837 12.6583 7.41714C12.7671 7.52592 12.8282 7.67344 12.8282 7.82727Z" fill="#151716" fill-opacity="0.65"/>
<path d="M11.8426 1.51023C10.7192 0.981143 9.44682 0.859068 8.24332 1.16491C7.03983 1.47076 5.9801 2.1855 5.24561 3.18673L2.62561 6.75673C0.464106 9.70073 1.53161 13.8867 4.83561 15.4402C7.75261 16.8132 11.2216 15.5432 12.5726 12.6227C12.9759 11.7524 13.378 10.8816 13.7791 10.0102L14.4276 8.60173C15.6576 5.93173 14.5051 2.76673 11.8426 1.51023ZM6.05211 3.77823C6.64931 2.96427 7.51086 2.38318 8.48929 2.13445C9.46772 1.88571 10.5022 1.98479 11.4156 2.41473C13.5831 3.43773 14.5201 6.01273 13.5201 8.18323L12.8716 9.59123V9.59223C12.5466 10.2972 12.5391 10.3142 11.6651 12.2022C10.5466 14.6217 7.67511 15.6712 5.26211 14.5352C2.52661 13.2487 1.64361 9.78423 3.43211 7.34823L6.05211 3.77823Z" fill="#151716" fill-opacity="0.65"/>
</svg>
