<svg width="16" height="17" viewBox="0 0 16 17" fill="none" xmlns="http://www.w3.org/2000/svg">
<path d="M11.334 11.166C11.953 11.166 12.5598 10.9936 13.0864 10.6682C13.613 10.3427 14.0386 9.87708 14.3154 9.32339C14.5923 8.76971 14.7094 8.14987 14.6538 7.53333C14.5983 6.91679 14.3721 6.32791 14.0007 5.83268C12.584 3.94602 10.6673 3.16602 8.00065 3.16602C5.33398 3.16602 1.33398 5.07602 1.33398 7.49935C1.33398 7.94138 1.50958 8.3653 1.82214 8.67786C2.1347 8.99042 2.55862 9.16602 3.00065 9.16602H5.33398C6.21665 9.14402 8.00065 9.49935 9.49132 10.6107C10.0376 10.9729 10.6785 11.1661 11.334 11.166Z" stroke="#151716" stroke-opacity="0.65" stroke-width="1.5" stroke-linecap="round" stroke-linejoin="round"/>
<path d="M1.33398 7.5V7.83333C1.33398 9.71867 1.33398 10.662 1.91998 11.2473C2.50532 11.8333 3.44865 11.8333 5.33398 11.8333C6.21665 11.812 8.00065 12.1667 9.49132 13.278C9.99356 13.6112 10.5767 13.8019 11.1788 13.83C11.7809 13.8581 12.3793 13.7224 12.9103 13.4373C13.4414 13.1523 13.8852 12.7286 14.1946 12.2114C14.504 11.6942 14.6674 11.1027 14.6673 10.5V7.83333" stroke="#151716" stroke-opacity="0.65" stroke-width="1.5" stroke-linecap="round" stroke-linejoin="round"/>
<path d="M12.334 7.83203C12.334 8.09725 12.2286 8.3516 12.0411 8.53914C11.8536 8.72667 11.5992 8.83203 11.334 8.83203C11.0688 8.83203 10.8144 8.72667 10.6269 8.53914C10.4393 8.3516 10.334 8.09725 10.334 7.83203C10.334 7.56681 10.4393 7.31246 10.6269 7.12492C10.8144 6.93739 11.0688 6.83203 11.334 6.83203C11.5992 6.83203 11.8536 6.93739 12.0411 7.12492C12.2286 7.31246 12.334 7.56681 12.334 7.83203Z" stroke="#151716" stroke-opacity="0.65" stroke-width="1.5" stroke-linecap="round" stroke-linejoin="round"/>
</svg>
