<svg width="10" height="15" viewBox="0 0 10 15" fill="none" xmlns="http://www.w3.org/2000/svg">
<path d="M5.43383 0.208984L5.01821 1.58461L6.44321 2.01336L9.27133 2.86242L9.68383 1.48711L5.43383 0.208984ZM5.33696 2.26836L4.50258 5.03742L4.33071 5.06867C4.33071 5.06867 3.80258 5.1593 3.24321 5.36555C2.96508 5.46867 2.68071 5.59992 2.46508 5.7468C2.24633 5.8968 2.10883 6.06242 2.06196 6.21242L0.190082 12.4343C0.171332 12.4937 0.186957 12.5812 0.321332 12.7405C0.458832 12.8999 0.702582 13.0905 1.01821 13.2812C1.65258 13.6562 2.56821 14.0312 3.50883 14.3124C4.44946 14.5968 5.42133 14.7905 6.15571 14.8249C6.52446 14.8437 6.83383 14.8187 7.03383 14.7593C7.23696 14.703 7.29633 14.6374 7.31508 14.578L9.18696 8.35305C9.23071 8.20305 9.20571 7.99055 9.10571 7.7468C9.00883 7.49992 8.84321 7.2343 8.66821 6.9968C8.31508 6.51867 7.92133 6.14992 7.92133 6.14992L7.79633 6.02805L8.62758 3.25617L5.33696 2.26836ZM6.51508 3.13117H6.55571C6.65258 3.13117 6.74946 3.1468 6.84946 3.17805C7.56196 3.39055 7.86821 4.2343 7.63383 5.01242C7.39946 5.79055 6.67446 6.3218 5.96508 6.1093C5.25571 5.8968 4.94633 5.05305 5.18071 4.27492C5.37758 3.61867 5.92133 3.13742 6.51508 3.13117ZM6.55258 3.69367C6.23071 3.68742 5.86196 3.9593 5.71821 4.43742C5.55571 4.98117 5.78071 5.46555 6.12758 5.5718C6.47446 5.67492 6.93071 5.39367 7.09633 4.84992C7.25883 4.30617 7.03383 3.8218 6.68696 3.71555C6.64321 3.70305 6.59633 3.6968 6.55258 3.69367ZM4.23071 6.64367C4.26821 6.64367 4.30571 6.64367 4.34321 6.6468C4.79008 6.66242 5.27133 6.75305 5.74008 6.89367C6.36821 7.08117 6.96196 7.3593 7.39946 7.70617C7.61821 7.88117 7.79946 8.0718 7.91508 8.2968C8.03383 8.51867 8.07758 8.7843 7.99946 9.04055L7.99633 9.05305L5.97446 13.9468L1.65571 12.6499L2.66821 7.46555L2.67133 7.44992L2.67446 7.43742C2.74946 7.1843 2.93383 6.98742 3.15258 6.86242C3.37446 6.74055 3.63071 6.68117 3.90883 6.65617C4.01508 6.6468 4.12133 6.64367 4.23071 6.64367ZM4.22758 7.20617C4.13383 7.20617 4.04321 7.2093 3.95883 7.21555C3.73383 7.23742 3.54946 7.28742 3.42758 7.35617C3.30571 7.4218 3.24633 7.49367 3.21508 7.59367L2.79946 9.72492C2.99008 9.50305 3.24008 9.3218 3.50883 9.1843C3.88071 8.99367 4.29946 8.88117 4.69946 8.88117C4.72446 8.88117 4.74946 8.88117 4.77446 8.8843C4.76508 8.71242 4.74321 8.5468 4.70571 8.41867L5.24321 8.26242C5.31196 8.4968 5.33696 8.75305 5.34633 8.98742C5.69321 9.11555 6.01821 9.35305 6.27133 9.6468C6.51508 9.92805 6.70571 10.2718 6.73071 10.6405L7.46196 8.8718C7.49008 8.76867 7.48071 8.67805 7.41821 8.55617C7.35258 8.43117 7.22758 8.28742 7.04946 8.1468C6.69633 7.86555 6.14946 7.60305 5.58071 7.43117C5.14946 7.30305 4.70571 7.22492 4.32133 7.2093C4.29008 7.20617 4.25883 7.20617 4.22758 7.20617ZM4.63383 9.44992C4.35258 9.46242 4.03696 9.5468 3.76196 9.6843C3.36821 9.8843 3.08071 10.1905 3.01508 10.4999C2.96821 10.7437 3.09008 11.0655 3.33071 11.3405C3.57133 11.6187 3.92133 11.8343 4.19633 11.8874C4.53696 11.953 5.01821 11.8718 5.41508 11.6687C5.80883 11.4687 6.09633 11.1624 6.16196 10.8499C6.20883 10.6093 6.09008 10.2905 5.84946 10.0124C5.69633 9.83742 5.50258 9.68742 5.30883 9.58742C5.32133 9.61555 5.33696 9.64992 5.36196 9.68742C5.43383 9.80305 5.56508 9.94367 5.67446 10.1343L5.18696 10.4155C5.12133 10.303 4.99946 10.1687 4.88696 9.99055C4.74008 10.1249 4.58071 10.253 4.40258 10.378L4.08383 9.91555C4.29321 9.76867 4.47133 9.61242 4.63383 9.44992ZM2.53071 11.0999L2.30571 12.2562L5.64946 13.2593L6.27758 11.7343C6.10258 11.9124 5.89321 12.0562 5.66821 12.1718C5.17446 12.4218 4.59633 12.5374 4.09008 12.4374C3.64321 12.353 3.22133 12.0749 2.90571 11.7093C2.74633 11.528 2.61508 11.3218 2.53071 11.0999Z" fill="#151716" fill-opacity="0.65"/>
</svg>
