<svg width="25" height="24" viewBox="0 0 25 24" fill="none" xmlns="http://www.w3.org/2000/svg">
<path d="M12.5 12C13.864 12 15.1721 11.4732 16.1365 10.5355C17.101 9.59785 17.6429 8.32608 17.6429 7C17.6429 5.67392 17.101 4.40215 16.1365 3.46447C15.1721 2.52678 13.864 2 12.5 2C11.136 2 9.82792 2.52678 8.86345 3.46447C7.89898 4.40215 7.35714 5.67392 7.35714 7C7.35714 8.32608 7.89898 9.59785 8.86345 10.5355C9.82792 11.4732 11.136 12 12.5 12ZM10.6638 13.875C6.70625 13.875 3.5 16.9922 3.5 20.8398C3.5 21.4805 4.03438 22 4.6933 22H20.3067C20.9656 22 21.5 21.4805 21.5 20.8398C21.5 16.9922 18.2938 13.875 14.3362 13.875H10.6638Z" fill="#151716"/>
</svg>
