<svg width="21" height="20" viewBox="0 0 21 20" fill="none" xmlns="http://www.w3.org/2000/svg">
<path d="M13.8296 4.21101L16.1371 6.51853M7.91996 5.95541H5.49268C5.2781 5.95541 5.0723 6.04065 4.92057 6.19238C4.76884 6.34412 4.68359 6.54991 4.68359 6.7645V14.8554C4.68359 15.07 4.76884 15.2758 4.92057 15.4275C5.0723 15.5793 5.2781 15.6645 5.49268 15.6645H14.3927C14.6073 15.6645 14.8131 15.5793 14.9648 15.4275C15.1165 15.2758 15.2018 15.07 15.2018 14.8554V11.2145M17.1509 3.19641C17.3025 3.34795 17.4227 3.52788 17.5048 3.72592C17.5868 3.92395 17.6291 4.13621 17.6291 4.35057C17.6291 4.56493 17.5868 4.77719 17.5048 4.97523C17.4227 5.17326 17.3025 5.35319 17.1509 5.50474L11.6135 11.0422L8.72905 11.619L9.30593 8.73463L14.8433 3.19721C14.9948 3.04554 15.1746 2.92521 15.3726 2.84311C15.5706 2.76101 15.7828 2.71875 15.9971 2.71875C16.2114 2.71875 16.4237 2.76101 16.6216 2.84311C16.8196 2.92521 16.9995 3.04554 17.1509 3.19721V3.19641Z" stroke="#FFF4E6" stroke-width="1.61818" stroke-linecap="round" stroke-linejoin="round"/>
</svg>
