<svg width="40" height="40" viewBox="0 0 40 40" fill="none" xmlns="http://www.w3.org/2000/svg">
<rect x="0.417969" y="0.736328" width="38.8364" height="38.8364" rx="12.9455" fill="#151716"/>
<path d="M23.3217 14.3653L25.6293 16.6728M17.4121 16.1097H14.9849C14.7703 16.1097 14.5645 16.1949 14.4128 16.3467C14.261 16.4984 14.1758 16.7042 14.1758 16.9188V25.0097C14.1758 25.2243 14.261 25.4301 14.4128 25.5818C14.5645 25.7336 14.7703 25.8188 14.9849 25.8188H23.8849C24.0995 25.8188 24.3053 25.7336 24.457 25.5818C24.6087 25.4301 24.694 25.2243 24.694 25.0097V21.3688M26.6431 13.3507C26.7947 13.5022 26.9149 13.6822 26.997 13.8802C27.079 14.0783 27.1213 14.2905 27.1213 14.5049C27.1213 14.7192 27.079 14.9315 26.997 15.1295C26.9149 15.3276 26.7947 15.5075 26.6431 15.659L21.1056 21.1965L18.2212 21.7733L18.7981 18.8889L24.3355 13.3515C24.487 13.1998 24.6668 13.0795 24.8648 12.9974C25.0628 12.9153 25.275 12.873 25.4893 12.873C25.7036 12.873 25.9158 12.9153 26.1138 12.9974C26.3118 13.0795 26.4916 13.1998 26.6431 13.3515V13.3507Z" stroke="#FFF4E6" stroke-width="1.61818" stroke-linecap="round" stroke-linejoin="round"/>
</svg>
