<svg width="32" height="32" viewBox="0 0 32 32" fill="none" xmlns="http://www.w3.org/2000/svg">
<path d="M8.0013 26.6673L10.0013 21.6673C10.2013 21.1562 10.5235 20.7504 10.968 20.45C11.4124 20.1495 11.9124 19.9998 12.468 20.0007H14.668V14.634C11.268 14.5229 8.41775 14.0229 6.1173 13.134C3.81686 12.2451 2.66708 11.2007 2.66797 10.0007C2.66797 8.71176 3.96797 7.61176 6.56797 6.70065C9.16797 5.78954 12.3124 5.33398 16.0013 5.33398C19.7124 5.33398 22.8626 5.78954 25.452 6.70065C28.0413 7.61176 29.3355 8.71176 29.3346 10.0007C29.3346 11.2007 28.1844 12.2451 25.884 13.134C23.5835 14.0229 20.7337 14.5229 17.3346 14.634V20.0007H19.5346C20.068 20.0007 20.5626 20.1509 21.0186 20.4513C21.4746 20.7518 21.8022 21.1571 22.0013 21.6673L24.0013 26.6673H21.3346L19.7346 22.6673H12.268L10.668 26.6673H8.0013Z" fill="#FF9500"/>
</svg>
