<svg width="25" height="24" viewBox="0 0 25 24" fill="none" xmlns="http://www.w3.org/2000/svg">
<path d="M12.5 22C10.1667 22 8.10185 21.2918 6.30556 19.8755C4.50926 18.4593 3.34259 16.6489 2.80556 14.4444C2.73148 14.1667 2.78704 13.9122 2.97222 13.6811C3.15741 13.45 3.40741 13.3156 3.72222 13.2778C4.01852 13.2407 4.28704 13.2963 4.52778 13.4444C4.76852 13.5926 4.93519 13.8148 5.02778 14.1111C5.47222 15.7778 6.38889 17.1389 7.77778 18.1944C9.16667 19.25 10.7407 19.7778 12.5 19.7778C14.6667 19.7778 16.5048 19.0233 18.0144 17.5144C19.5241 16.0056 20.2785 14.1674 20.2778 12C20.277 9.83259 19.5226 7.99481 18.0144 6.48667C16.5063 4.97852 14.6681 4.2237 12.5 4.22222C11.2222 4.22222 10.0278 4.51852 8.91667 5.11111C7.80555 5.7037 6.87037 6.51852 6.11111 7.55555H8.05556C8.37037 7.55555 8.63444 7.66222 8.84778 7.87555C9.06111 8.08889 9.16741 8.35259 9.16667 8.66667C9.16593 8.98074 9.05926 9.24481 8.84667 9.45889C8.63407 9.67296 8.37037 9.77926 8.05556 9.77778H3.61111C3.2963 9.77778 3.03259 9.67111 2.82 9.45778C2.60741 9.24444 2.50074 8.98074 2.5 8.66667V4.22222C2.5 3.90741 2.60667 3.6437 2.82 3.43111C3.03333 3.21852 3.29704 3.11185 3.61111 3.11111C3.92519 3.11037 4.18926 3.21704 4.40333 3.43111C4.61741 3.64518 4.7237 3.90889 4.72222 4.22222V5.72222C5.66667 4.53704 6.81963 3.62037 8.18111 2.97222C9.54259 2.32407 10.9822 2 12.5 2C13.8889 2 15.19 2.26407 16.4033 2.79222C17.6167 3.32037 18.6722 4.03296 19.57 4.93C20.4678 5.82704 21.1807 6.88259 21.7089 8.09667C22.237 9.31074 22.5007 10.6118 22.5 12C22.4993 13.3881 22.2356 14.6893 21.7089 15.9033C21.1822 17.1174 20.4693 18.173 19.57 19.07C18.6707 19.967 17.6152 20.68 16.4033 21.2089C15.1915 21.7378 13.8904 22.0015 12.5 22ZM13.6111 11.5556L16.3889 14.3333C16.5926 14.537 16.6944 14.7963 16.6944 15.1111C16.6944 15.4259 16.5926 15.6852 16.3889 15.8889C16.1852 16.0926 15.9259 16.1944 15.6111 16.1944C15.2963 16.1944 15.037 16.0926 14.8333 15.8889L11.7222 12.7778C11.6111 12.6667 11.5278 12.5418 11.4722 12.4033C11.4167 12.2648 11.3889 12.1211 11.3889 11.9722V7.55555C11.3889 7.24074 11.4956 6.97704 11.7089 6.76444C11.9222 6.55185 12.1859 6.44518 12.5 6.44444C12.8141 6.4437 13.0781 6.55037 13.2922 6.76444C13.5063 6.97852 13.6126 7.24222 13.6111 7.55555V11.5556Z" fill="#151716"/>
</svg>
