<svg width="25" height="24" viewBox="0 0 25 24" fill="none" xmlns="http://www.w3.org/2000/svg">
<path d="M12.4998 18.169L7.83509 21.7306C7.60395 21.9197 7.35181 22.0092 7.07865 21.9991C6.80549 21.989 6.56385 21.91 6.35372 21.7621C6.1436 21.6142 5.98096 21.4145 5.86582 21.1632C5.75067 20.9119 5.74521 20.6388 5.84943 20.3438L7.64598 14.5128L3.0758 11.2664C2.82365 11.0983 2.66606 10.8777 2.60302 10.6046C2.53999 10.3314 2.55049 10.0792 2.63454 9.84811C2.71859 9.61697 2.86568 9.41189 3.0758 9.23287C3.28592 9.05384 3.53807 8.96475 3.83224 8.96559H9.47405L11.3021 2.91404C11.4072 2.61987 11.5702 2.39378 11.7913 2.23576C12.0123 2.07775 12.2485 1.99917 12.4998 2.00001C12.7511 2.00085 12.9877 2.07985 13.2096 2.23703C13.4315 2.3942 13.5941 2.61987 13.6975 2.91404L15.5256 8.96559H21.1674C21.4616 8.96559 21.7137 9.0551 21.9238 9.23413C22.134 9.41315 22.2811 9.61781 22.3651 9.84811C22.4492 10.0784 22.4597 10.3306 22.3966 10.6046C22.3336 10.8786 22.176 11.0992 21.9238 11.2664L17.3537 14.5128L19.1502 20.3438C19.2553 20.6379 19.2502 20.9111 19.1351 21.1632C19.0199 21.4154 18.8569 21.615 18.6459 21.7621C18.435 21.9092 18.1933 21.9882 17.921 21.9991C17.6487 22.01 17.3965 21.9205 17.1646 21.7306L12.4998 18.169Z" fill="black"/>
</svg>
