<svg width="91" height="46" viewBox="0 0 91 46" fill="none" xmlns="http://www.w3.org/2000/svg">
<rect x="0.507812" width="90.4909" height="45.3091" rx="12.9455" fill="#FF9500"/>
<path d="M15.8603 27.6543H14.164L17.9755 17.0626H19.8218L23.6334 27.6543H21.9371L18.9427 18.9864H18.8599L15.8603 27.6543ZM16.1447 23.5066H21.6475V24.8512H16.1447V23.5066ZM27.8846 27.8094C27.2433 27.8094 26.671 27.6457 26.1676 27.3181C25.6676 26.9871 25.2746 26.5165 24.9884 25.9062C24.7057 25.2925 24.5643 24.5564 24.5643 23.6979C24.5643 22.8394 24.7074 22.105 24.9936 21.4947C25.2832 20.8845 25.6797 20.4173 26.1831 20.0932C26.6865 19.7691 27.2571 19.6071 27.8949 19.6071C28.388 19.6071 28.7845 19.6898 29.0844 19.8553C29.3879 20.0174 29.6223 20.207 29.7878 20.4242C29.9567 20.6414 30.0878 20.8328 30.1809 20.9983H30.2739V17.0626H31.8203V27.6543H30.3101V26.4182H30.1809C30.0878 26.5872 29.9533 26.7803 29.7775 26.9975C29.6051 27.2147 29.3672 27.4043 29.0638 27.5664C28.7603 27.7284 28.3673 27.8094 27.8846 27.8094ZM28.2259 26.4907C28.6707 26.4907 29.0465 26.3734 29.3534 26.139C29.6637 25.9011 29.8981 25.5718 30.0567 25.1512C30.2188 24.7305 30.2998 24.2409 30.2998 23.6824C30.2998 23.1307 30.2205 22.648 30.0619 22.2343C29.9033 21.8206 29.6706 21.4982 29.3637 21.2672C29.0569 21.0362 28.6776 20.9207 28.2259 20.9207C27.7605 20.9207 27.3726 21.0414 27.0623 21.2827C26.752 21.5241 26.5175 21.8533 26.3589 22.2705C26.2038 22.6877 26.1262 23.1583 26.1262 23.6824C26.1262 24.2134 26.2055 24.6909 26.3641 25.115C26.5227 25.5391 26.7572 25.8752 27.0675 26.1235C27.3812 26.3683 27.7674 26.4907 28.2259 26.4907ZM37.0011 27.8094C36.3598 27.8094 35.7875 27.6457 35.2841 27.3181C34.7841 26.9871 34.3911 26.5165 34.1049 25.9062C33.8222 25.2925 33.6808 24.5564 33.6808 23.6979C33.6808 22.8394 33.8239 22.105 34.1101 21.4947C34.3997 20.8845 34.7962 20.4173 35.2996 20.0932C35.803 19.7691 36.3736 19.6071 37.0114 19.6071C37.5045 19.6071 37.901 19.6898 38.2009 19.8553C38.5043 20.0174 38.7388 20.207 38.9043 20.4242C39.0732 20.6414 39.2043 20.8328 39.2974 20.9983H39.3904V17.0626H40.9368V27.6543H39.4266V26.4182H39.2974C39.2043 26.5872 39.0698 26.7803 38.894 26.9975C38.7216 27.2147 38.4837 27.4043 38.1803 27.5664C37.8768 27.7284 37.4838 27.8094 37.0011 27.8094ZM37.3424 26.4907C37.7872 26.4907 38.163 26.3734 38.4699 26.139C38.7802 25.9011 39.0146 25.5718 39.1732 25.1512C39.3353 24.7305 39.4163 24.2409 39.4163 23.6824C39.4163 23.1307 39.337 22.648 39.1784 22.2343C39.0198 21.8206 38.7871 21.4982 38.4802 21.2672C38.1734 21.0362 37.7941 20.9207 37.3424 20.9207C36.877 20.9207 36.4891 21.0414 36.1788 21.2827C35.8685 21.5241 35.634 21.8533 35.4754 22.2705C35.3203 22.6877 35.2427 23.1583 35.2427 23.6824C35.2427 24.2134 35.322 24.6909 35.4806 25.115C35.6392 25.5391 35.8737 25.8752 36.184 26.1235C36.4977 26.3683 36.8839 26.4907 37.3424 26.4907Z" fill="#151716"/>
<rect x="48.9258" y="3.23633" width="38.8364" height="38.8364" rx="12.9455" fill="#151716"/>
<path d="M67.3438 23.6543H62.3438C62.0604 23.6543 61.8231 23.5583 61.6318 23.3663C61.4404 23.1743 61.3444 22.937 61.3438 22.6543C61.3431 22.3716 61.4391 22.1343 61.6318 21.9423C61.8244 21.7503 62.0618 21.6543 62.3438 21.6543H67.3438V16.6543C67.3438 16.371 67.4398 16.1336 67.6318 15.9423C67.8238 15.751 68.0611 15.655 68.3438 15.6543C68.6264 15.6536 68.8641 15.7496 69.0568 15.9423C69.2494 16.135 69.3451 16.3723 69.3438 16.6543V21.6543H74.3438C74.6271 21.6543 74.8648 21.7503 75.0568 21.9423C75.2488 22.1343 75.3444 22.3716 75.3438 22.6543C75.3431 22.937 75.2471 23.1746 75.0558 23.3673C74.8644 23.56 74.6271 23.6556 74.3438 23.6543H69.3438V28.6543C69.3438 28.9376 69.2478 29.1753 69.0558 29.3673C68.8638 29.5593 68.6264 29.655 68.3438 29.6543C68.0611 29.6536 67.8238 29.5576 67.6318 29.3663C67.4398 29.175 67.3438 28.9376 67.3438 28.6543V23.6543Z" fill="#FFF4E6"/>
</svg>
