<svg width="21" height="20" viewBox="0 0 21 20" fill="none" xmlns="http://www.w3.org/2000/svg">
<path d="M10.4998 16.169L5.83509 19.7306C5.60395 19.9197 5.35181 20.0092 5.07865 19.9991C4.80549 19.989 4.56385 19.91 4.35372 19.7621C4.1436 19.6142 3.98096 19.4145 3.86582 19.1632C3.75067 18.9119 3.74521 18.6388 3.84943 18.3438L5.64598 12.5128L1.0758 9.26644C0.823653 9.09834 0.666061 8.87771 0.603024 8.60455C0.539987 8.33139 0.550493 8.07924 0.634542 7.84811C0.718592 7.61697 0.865678 7.41189 1.0758 7.23287C1.28592 7.05384 1.53807 6.96475 1.83224 6.96559H7.47405L9.30212 0.914042C9.40718 0.61987 9.57024 0.393778 9.79129 0.235765C10.0123 0.0777523 10.2485 -0.000833822 10.4998 6.67057e-06C10.7511 0.000847163 10.9877 0.0798537 11.2096 0.237026C11.4315 0.394198 11.5941 0.61987 11.6975 0.914042L13.5256 6.96559H19.1674C19.4616 6.96559 19.7137 7.0551 19.9238 7.23413C20.134 7.41315 20.2811 7.61781 20.3651 7.84811C20.4492 8.0784 20.4597 8.33055 20.3966 8.60455C20.3336 8.87855 20.176 9.09918 19.9238 9.26644L15.3537 12.5128L17.1502 18.3438C17.2553 18.6379 17.2502 18.9111 17.1351 19.1632C17.0199 19.4154 16.8569 19.615 16.6459 19.7621C16.435 19.9092 16.1933 19.9882 15.921 19.9991C15.6487 20.01 15.3965 19.9205 15.1646 19.7306L10.4998 16.169Z" fill="black"/>
</svg>
