<svg width="28" height="24" viewBox="0 0 28 24" fill="none" xmlns="http://www.w3.org/2000/svg">
<path d="M17.4309 20.4288L17.432 20.4279C17.8179 20.124 18.2107 19.8214 18.6058 19.5169C20.2803 18.2268 21.9977 16.9036 23.4159 15.3068C25.1346 13.3716 26.3334 11.1134 26.3334 8.18418C26.3334 5.31698 24.713 2.91151 22.5009 1.89994C20.352 0.917263 17.4646 1.17695 14.7206 4.02827L14.0001 4.77698L13.2795 4.02827C10.5354 1.17683 7.64799 0.916608 5.49914 1.89884C3.28722 2.9099 1.66675 5.31495 1.66675 8.18285C1.66675 11.1127 2.86585 13.3709 4.58476 15.3063C6.00061 16.9004 7.7142 18.2218 9.38556 19.5106C9.78385 19.8177 10.1797 20.123 10.5686 20.4296M17.4309 20.4288L10.5686 20.4296M17.4309 20.4288C16.7301 20.9824 16.1045 21.4679 15.5018 21.8202C14.8987 22.1726 14.413 22.3335 14.0001 22.3335C13.5874 22.3335 13.1017 22.1725 12.4983 21.8198M17.4309 20.4288L12.4983 21.8198M10.5686 20.4296C11.2698 20.9822 11.8953 21.4674 12.4983 21.8198M10.5686 20.4296L12.4983 21.8198" stroke="#FF9500" stroke-width="2"/>
</svg>
