<svg width="30" height="32" viewBox="0 0 30 32" fill="none" xmlns="http://www.w3.org/2000/svg">
<path d="M11.36 0C11.1903 0 11.0275 0.0674284 10.9075 0.187452C10.7874 0.307475 10.72 0.470261 10.72 0.64V1.92C10.72 2.08974 10.7874 2.25253 10.9075 2.37255C11.0275 2.49257 11.1903 2.56 11.36 2.56H12.32V4.2544C5.39648 5.0512 0 10.9469 0 18.08C0 25.7546 6.24544 32 13.92 32C21.5946 32 27.84 25.7546 27.84 18.08C27.8426 15.4532 27.0966 12.88 25.6896 10.6618L27.0458 9.56384L27.6499 10.3101C27.7028 10.3754 27.768 10.4297 27.8418 10.4699C27.9157 10.51 27.9967 10.5352 28.0803 10.544C28.1639 10.5529 28.2484 10.5451 28.329 10.5213C28.4096 10.4975 28.4847 10.458 28.5501 10.4051L29.5453 9.59936C29.677 9.49247 29.7609 9.33765 29.7786 9.16891C29.7962 9.00018 29.7461 8.83135 29.6394 8.69952L26.4176 4.72C26.3647 4.65465 26.2995 4.60035 26.2257 4.56021C26.1518 4.52006 26.0708 4.49486 25.9872 4.48603C25.9036 4.47721 25.8191 4.48493 25.7385 4.50877C25.6579 4.53261 25.5828 4.57209 25.5174 4.62496L24.5222 5.43072C24.3905 5.53761 24.3066 5.69243 24.2889 5.86117C24.2713 6.0299 24.3214 6.19873 24.4282 6.33056L25.0326 7.0768L23.6822 8.16928C21.5264 6.04512 18.6826 4.6192 15.52 4.25504V2.56H16.48C16.6497 2.56 16.8125 2.49257 16.9325 2.37255C17.0526 2.25253 17.12 2.08974 17.12 1.92V0.64C17.12 0.470261 17.0526 0.307475 16.9325 0.187452C16.8125 0.0674284 16.6497 0 16.48 0L11.36 0ZM13.92 6.4C20.384 6.4 25.6 11.616 25.6 18.08C25.6 24.544 20.384 29.76 13.92 29.76C7.456 29.76 2.24 24.544 2.24 18.08C2.24 11.616 7.456 6.4 13.92 6.4ZM13.9206 8.78176L13.92 18.08L13.9206 27.3333C23.1795 26.3333 23.0237 20.6392 23.1795 18.9191C23.3354 17.1991 23.0092 15.4696 22.2374 13.9245C21.4654 12.3796 20.2784 11.0802 18.8095 10.1719C17.3406 9.26363 15.6477 8.78206 13.9206 8.78176Z" fill="#FF9500"/>
</svg>
