<svg width="28" height="22" viewBox="0 0 28 22" fill="none" xmlns="http://www.w3.org/2000/svg">
<path d="M5.99935 21.6668L7.99935 16.6668C8.19935 16.1557 8.52157 15.7499 8.96602 15.4495C9.41046 15.1491 9.91046 14.9993 10.466 15.0002H12.666V9.6335C9.26602 9.52239 6.41579 9.02239 4.11535 8.1335C1.8149 7.24461 0.665127 6.20016 0.666016 5.00016C0.666016 3.71127 1.96602 2.61127 4.56602 1.70016C7.16602 0.789052 10.3105 0.333496 13.9993 0.333496C17.7105 0.333496 20.8607 0.789052 23.45 1.70016C26.0393 2.61127 27.3336 3.71127 27.3327 5.00016C27.3327 6.20016 26.1825 7.24461 23.882 8.1335C21.5816 9.02239 18.7318 9.52239 15.3327 9.6335V15.0002H17.5327C18.066 15.0002 18.5607 15.1504 19.0167 15.4508C19.4727 15.7513 19.8002 16.1566 19.9993 16.6668L21.9993 21.6668H19.3327L17.7327 17.6668H10.266L8.66602 21.6668H5.99935Z" fill="#FF9500"/>
</svg>
